<svg xmlns="http://www.w3.org/2000/svg" xmlns:xlink="http://www.w3.org/1999/xlink" preserveAspectRatio="xMidYMid" width="744" height="744" viewBox="0 0 744 744">
  <defs>
    <style>

      .cls-2 {
        fill: #BDC2CD;
      }
    </style>
  </defs>
  <path d="M442.429,371.719 C442.429,371.719 728.101,657.390 728.101,657.390 C747.627,676.916 747.627,708.574 728.101,728.101 C728.101,728.101 727.393,728.808 727.393,728.808 C707.867,748.334 676.209,748.334 656.683,728.808 C656.683,728.808 371.012,443.137 371.012,443.137 C371.012,443.137 86.048,728.101 86.048,728.101 C66.521,747.627 34.863,747.627 15.337,728.101 C15.337,728.101 14.630,727.393 14.630,727.393 C-4.896,707.867 -4.896,676.209 14.630,656.683 C14.630,656.683 299.594,371.719 299.594,371.719 C299.594,371.719 14.630,86.755 14.630,86.755 C-4.896,67.229 -4.896,35.570 14.630,16.044 C14.630,16.044 15.337,15.337 15.337,15.337 C34.863,-4.189 66.521,-4.189 86.048,15.337 C86.048,15.337 371.012,300.301 371.012,300.301 C371.012,300.301 656.683,14.630 656.683,14.630 C676.209,-4.896 707.867,-4.896 727.393,14.630 C727.393,14.630 728.101,15.337 728.101,15.337 C747.627,34.863 747.627,66.521 728.101,86.048 C728.101,86.048 442.429,371.719 442.429,371.719 Z" id="path-1" class="cls-2" fill-rule="evenodd"/>
</svg>
