<svg xmlns="http://www.w3.org/2000/svg" xmlns:xlink="http://www.w3.org/1999/xlink" preserveAspectRatio="xMidYMid" width="1004" height="1004" viewBox="0 0 1004 1004">
  <defs>
    <style>

      .cls-2 {
        fill: #ffffff;
      }
    </style>
  </defs>
  <path d="M501.875,1003.750 C224.697,1003.750 -0.000,779.053 -0.000,501.875 C-0.000,224.697 224.697,-0.000 501.875,-0.000 C779.053,-0.000 1003.750,224.697 1003.750,501.875 C1003.750,779.053 779.053,1003.750 501.875,1003.750 ZM536.625,351.326 C536.625,349.476 536.625,347.625 536.625,345.775 C536.699,345.775 536.773,345.775 536.847,345.775 C536.847,344.739 536.847,343.703 536.847,342.667 C536.921,342.667 536.995,342.667 537.069,342.667 C537.069,342.001 537.069,341.335 537.069,340.669 C537.143,340.669 537.217,340.669 537.291,340.669 C537.291,340.077 537.291,339.485 537.291,338.893 C537.365,338.893 537.439,338.893 537.513,338.893 C537.513,338.523 537.513,338.153 537.513,337.783 C537.587,337.783 537.661,337.783 537.735,337.783 C537.735,337.339 537.735,336.895 537.735,336.451 C537.809,336.451 537.883,336.451 537.957,336.451 C537.957,336.081 537.957,335.711 537.957,335.341 C538.031,335.341 538.105,335.341 538.179,335.341 C538.179,335.045 538.179,334.749 538.179,334.453 C538.253,334.453 538.327,334.453 538.401,334.453 C538.401,334.157 538.401,333.861 538.401,333.565 C538.475,333.565 538.549,333.565 538.623,333.565 C538.623,333.269 538.623,332.973 538.623,332.677 C538.697,332.677 538.771,332.677 538.845,332.677 C538.845,332.455 538.845,332.233 538.845,332.011 C538.919,332.011 538.993,332.011 539.067,332.011 C539.067,331.789 539.067,331.567 539.067,331.345 C539.140,331.345 539.214,331.345 539.288,331.345 C539.288,331.123 539.288,330.900 539.288,330.679 C539.362,330.679 539.436,330.679 539.510,330.679 C539.510,330.457 539.510,330.234 539.510,330.012 C539.584,330.012 539.658,330.012 539.732,330.012 C539.732,329.864 539.732,329.716 539.732,329.568 C539.806,329.568 539.880,329.568 539.954,329.568 C539.954,329.346 539.954,329.124 539.954,328.902 C540.028,328.902 540.102,328.902 540.176,328.902 C540.324,328.458 540.472,328.014 540.620,327.570 C540.694,327.570 540.768,327.570 540.842,327.570 C540.842,327.422 540.842,327.274 540.842,327.126 C540.916,327.126 540.990,327.126 541.064,327.126 C541.212,326.682 541.360,326.238 541.508,325.794 C541.656,325.720 541.804,325.646 541.952,325.572 C542.026,325.276 542.100,324.980 542.174,324.684 C542.322,324.610 542.470,324.536 542.618,324.462 C542.618,324.314 542.618,324.166 542.618,324.018 C542.766,323.944 542.914,323.870 543.062,323.796 C543.136,323.574 543.210,323.352 543.284,323.130 C543.654,322.834 544.024,322.538 544.393,322.242 C544.393,322.094 544.393,321.946 544.393,321.798 C544.541,321.724 544.689,321.650 544.837,321.576 C545.207,321.132 545.577,320.688 545.947,320.244 C546.095,320.244 546.243,320.244 546.391,320.244 C546.687,319.874 546.983,319.504 547.279,319.134 C547.427,319.134 547.575,319.134 547.723,319.134 C547.871,318.912 548.019,318.690 548.167,318.468 C548.315,318.468 548.463,318.468 548.611,318.468 C548.685,318.320 548.759,318.172 548.833,318.024 C548.980,318.024 549.128,318.024 549.276,318.024 C549.350,317.876 549.424,317.728 549.498,317.580 C549.942,317.432 550.386,317.284 550.830,317.136 C559.961,311.403 575.019,312.251 589.894,312.251 C599.807,312.251 609.723,312.251 619.636,312.251 C622.151,312.251 624.667,312.251 627.183,312.251 C628.046,312.251 629.583,312.049 630.068,312.473 C632.249,312.485 636.142,312.877 637.837,312.251 C638.354,288.498 638.872,264.738 639.390,240.985 C639.464,240.985 639.538,240.985 639.612,240.985 C639.612,238.321 639.612,235.657 639.612,232.993 C639.974,231.704 639.834,229.538 639.834,227.886 C639.908,225.814 639.982,223.742 640.056,221.670 C638.391,221.637 636.339,221.400 634.951,221.004 C634.211,221.004 633.471,221.004 632.732,221.004 C632.732,220.930 632.732,220.856 632.732,220.782 C631.992,220.782 631.252,220.782 630.512,220.782 C630.512,220.708 630.512,220.634 630.512,220.560 C629.698,220.560 628.884,220.560 628.071,220.560 C628.071,220.486 628.071,220.412 628.071,220.338 C627.331,220.338 626.591,220.338 625.851,220.338 C625.851,220.264 625.851,220.190 625.851,220.116 C624.889,220.116 623.927,220.116 622.966,220.116 C622.966,220.042 622.966,219.968 622.966,219.894 C622.152,219.894 621.338,219.894 620.524,219.894 C620.524,219.820 620.524,219.746 620.524,219.672 C619.784,219.672 619.044,219.672 618.304,219.672 C617.047,219.598 615.789,219.524 614.531,219.450 C614.531,219.376 614.531,219.302 614.531,219.228 C613.274,219.228 612.016,219.228 610.758,219.228 C610.758,219.154 610.758,219.080 610.758,219.006 C609.944,219.006 609.130,219.006 608.317,219.006 C606.467,218.932 604.617,218.858 602.768,218.784 C602.768,218.710 602.768,218.636 602.768,218.562 C600.992,218.562 599.216,218.562 597.441,218.562 C597.441,218.488 597.441,218.414 597.441,218.340 C595.591,218.340 593.741,218.340 591.892,218.340 C590.417,217.923 587.967,218.118 586.121,218.118 C584.732,218.118 582.942,218.189 581.904,217.896 C579.685,217.896 577.465,217.896 575.245,217.896 C572.406,217.896 568.074,217.452 565.701,218.118 C563.704,218.118 561.706,218.118 559.708,218.118 C559.708,218.192 559.708,218.266 559.708,218.340 C558.673,218.340 557.637,218.340 556.601,218.340 C556.601,218.414 556.601,218.488 556.601,218.562 C555.565,218.562 554.529,218.562 553.494,218.562 C551.051,219.256 547.676,218.981 545.281,219.672 C544.689,219.672 544.097,219.672 543.506,219.672 C543.506,219.746 543.506,219.820 543.506,219.894 C542.470,219.968 541.434,220.042 540.398,220.116 C540.398,220.190 540.398,220.264 540.398,220.338 C539.511,220.412 538.623,220.486 537.735,220.560 C537.735,220.634 537.735,220.708 537.735,220.782 C537.365,220.782 536.995,220.782 536.625,220.782 C536.625,220.856 536.625,220.930 536.625,221.004 C536.181,221.004 535.737,221.004 535.293,221.004 C535.293,221.078 535.293,221.152 535.293,221.226 C534.997,221.226 534.701,221.226 534.405,221.226 C534.405,221.300 534.405,221.374 534.405,221.448 C533.962,221.448 533.518,221.448 533.074,221.448 C533.074,221.522 533.074,221.596 533.074,221.670 C532.704,221.670 532.334,221.670 531.964,221.670 C531.964,221.744 531.964,221.818 531.964,221.892 C531.668,221.892 531.372,221.892 531.076,221.892 C531.076,221.966 531.076,222.040 531.076,222.114 C530.410,222.188 529.744,222.262 529.079,222.336 C529.079,222.410 529.079,222.484 529.079,222.558 C528.709,222.558 528.339,222.558 527.969,222.558 C527.969,222.632 527.969,222.706 527.969,222.780 C527.673,222.780 527.377,222.780 527.081,222.780 C527.081,222.854 527.081,222.928 527.081,223.002 C526.785,223.002 526.489,223.002 526.193,223.002 C526.193,223.076 526.193,223.150 526.193,223.224 C525.897,223.224 525.601,223.224 525.305,223.224 C525.305,223.298 525.305,223.372 525.305,223.446 C525.009,223.446 524.713,223.446 524.417,223.446 C524.417,223.520 524.417,223.594 524.417,223.668 C523.826,223.742 523.234,223.816 522.642,223.890 C522.642,223.964 522.642,224.038 522.642,224.112 C522.124,224.186 521.606,224.260 521.088,224.334 C521.088,224.408 521.088,224.482 521.088,224.556 C520.570,224.630 520.052,224.704 519.534,224.778 C519.534,224.852 519.534,224.926 519.534,225.000 C519.313,225.000 519.091,225.000 518.869,225.000 C518.869,225.074 518.869,225.148 518.869,225.222 C518.647,225.222 518.425,225.222 518.203,225.222 C518.203,225.296 518.203,225.370 518.203,225.444 C517.981,225.444 517.759,225.444 517.537,225.444 C517.537,225.518 517.537,225.592 517.537,225.666 C517.241,225.666 516.945,225.666 516.649,225.666 C516.649,225.740 516.649,225.814 516.649,225.888 C516.427,225.888 516.205,225.888 515.983,225.888 C515.983,225.962 515.983,226.036 515.983,226.110 C515.761,226.110 515.539,226.110 515.317,226.110 C515.317,226.184 515.317,226.258 515.317,226.332 C515.095,226.332 514.873,226.332 514.651,226.332 C514.651,226.406 514.651,226.480 514.651,226.554 C514.430,226.554 514.208,226.554 513.986,226.554 C513.986,226.628 513.986,226.702 513.986,226.776 C513.542,226.850 513.098,226.924 512.654,226.998 C512.654,227.072 512.654,227.146 512.654,227.220 C512.506,227.220 512.358,227.220 512.210,227.220 C512.210,227.294 512.210,227.368 512.210,227.442 C511.988,227.442 511.766,227.442 511.544,227.442 C511.544,227.516 511.544,227.590 511.544,227.664 C511.100,227.738 510.656,227.812 510.212,227.886 C510.212,227.960 510.212,228.034 510.212,228.108 C510.064,228.108 509.916,228.108 509.768,228.108 C509.768,228.182 509.768,228.256 509.768,228.330 C509.325,228.404 508.881,228.478 508.437,228.552 C503.291,230.800 497.906,233.012 493.344,235.879 C493.196,235.879 493.048,235.879 492.900,235.879 C492.900,235.953 492.900,236.027 492.900,236.101 C492.752,236.101 492.604,236.101 492.456,236.101 C492.456,236.175 492.456,236.249 492.456,236.323 C492.308,236.323 492.160,236.323 492.012,236.323 C492.012,236.397 492.012,236.471 492.012,236.545 C491.864,236.545 491.716,236.545 491.568,236.545 C491.494,236.693 491.420,236.841 491.346,236.989 C490.902,237.137 490.458,237.285 490.014,237.433 C489.940,237.581 489.866,237.729 489.792,237.877 C489.497,237.951 489.201,238.025 488.905,238.099 C488.831,238.247 488.757,238.395 488.683,238.543 C488.387,238.617 488.091,238.691 487.795,238.765 C487.721,238.913 487.647,239.061 487.573,239.209 C487.425,239.209 487.277,239.209 487.129,239.209 C487.055,239.357 486.981,239.505 486.907,239.653 C486.685,239.727 486.463,239.801 486.241,239.875 C486.241,239.949 486.241,240.023 486.241,240.097 C485.945,240.171 485.649,240.245 485.353,240.319 C485.279,240.467 485.205,240.615 485.131,240.763 C484.983,240.763 484.835,240.763 484.687,240.763 C484.687,240.837 484.687,240.911 484.687,240.985 C484.466,241.059 484.244,241.133 484.022,241.207 C483.948,241.355 483.874,241.503 483.800,241.651 C483.652,241.651 483.504,241.651 483.356,241.651 C483.208,241.873 483.060,242.095 482.912,242.317 C482.764,242.317 482.616,242.317 482.468,242.317 C482.394,242.465 482.320,242.613 482.246,242.761 C482.024,242.835 481.802,242.909 481.580,242.983 C481.580,243.057 481.580,243.131 481.580,243.205 C481.432,243.205 481.284,243.205 481.136,243.205 C480.988,243.427 480.840,243.649 480.692,243.871 C480.544,243.871 480.396,243.871 480.248,243.871 C480.100,244.093 479.952,244.315 479.804,244.537 C479.657,244.537 479.509,244.537 479.361,244.537 C479.213,244.759 479.065,244.981 478.917,245.203 C478.769,245.203 478.621,245.203 478.473,245.203 C478.325,245.425 478.177,245.647 478.029,245.869 C477.881,245.869 477.733,245.869 477.585,245.869 C477.363,246.165 477.141,246.461 476.919,246.757 C476.771,246.757 476.623,246.757 476.475,246.757 C476.253,247.053 476.031,247.350 475.809,247.645 C475.661,247.645 475.513,247.645 475.365,247.645 C475.069,248.015 474.773,248.386 474.478,248.756 C474.330,248.756 474.182,248.756 474.034,248.756 C473.590,249.274 473.146,249.792 472.702,250.310 C472.554,250.310 472.406,250.310 472.258,250.310 C471.814,250.828 471.370,251.346 470.926,251.864 C470.704,252.012 470.482,252.160 470.260,252.308 C470.260,252.382 470.260,252.456 470.260,252.530 C470.112,252.530 469.964,252.530 469.817,252.530 C469.003,253.418 468.189,254.306 467.375,255.194 C466.635,255.860 465.895,256.526 465.155,257.192 C465.155,257.340 465.155,257.488 465.155,257.636 C464.490,258.228 463.824,258.820 463.158,259.412 C463.084,259.634 463.010,259.856 462.936,260.078 C462.418,260.522 461.900,260.966 461.382,261.410 C461.382,261.558 461.382,261.706 461.382,261.854 C461.012,262.150 460.642,262.446 460.272,262.742 C460.272,262.890 460.272,263.038 460.272,263.186 C459.977,263.408 459.681,263.630 459.385,263.852 C459.385,264.000 459.385,264.149 459.385,264.296 C459.237,264.370 459.089,264.445 458.941,264.519 C458.867,264.741 458.793,264.963 458.719,265.185 C458.423,265.407 458.127,265.629 457.831,265.851 C457.831,265.999 457.831,266.147 457.831,266.295 C457.609,266.443 457.387,266.591 457.165,266.739 C457.091,266.961 457.017,267.183 456.943,267.405 C456.795,267.479 456.647,267.553 456.499,267.627 C456.499,267.775 456.499,267.923 456.499,268.071 C456.351,268.145 456.203,268.219 456.055,268.293 C456.055,268.441 456.055,268.589 456.055,268.737 C455.833,268.885 455.611,269.033 455.389,269.181 C455.389,269.329 455.389,269.477 455.389,269.625 C455.241,269.699 455.093,269.773 454.946,269.847 C454.872,270.069 454.798,270.291 454.724,270.513 C454.650,270.513 454.576,270.513 454.502,270.513 C454.502,270.661 454.502,270.809 454.502,270.957 C454.354,271.031 454.206,271.105 454.058,271.179 C454.058,271.327 454.058,271.475 454.058,271.623 C453.910,271.697 453.762,271.771 453.614,271.845 C453.614,271.993 453.614,272.141 453.614,272.289 C453.466,272.363 453.318,272.437 453.170,272.511 C453.170,272.659 453.170,272.807 453.170,272.955 C453.022,273.029 452.874,273.103 452.726,273.177 C452.652,273.399 452.578,273.621 452.504,273.843 C452.430,273.843 452.356,273.843 452.282,273.843 C452.208,274.139 452.134,274.435 452.060,274.731 C451.912,274.805 451.764,274.879 451.616,274.953 C451.542,275.249 451.468,275.545 451.394,275.841 C451.246,275.915 451.098,275.989 450.950,276.063 C450.876,276.359 450.802,276.655 450.728,276.951 C450.580,277.025 450.432,277.099 450.284,277.173 C450.136,277.617 449.989,278.061 449.841,278.505 C449.693,278.579 449.545,278.653 449.397,278.727 C449.397,278.875 449.397,279.023 449.397,279.171 C449.323,279.171 449.249,279.171 449.175,279.171 C449.175,279.319 449.175,279.467 449.175,279.615 C449.101,279.615 449.027,279.615 448.953,279.615 C448.953,279.763 448.953,279.911 448.953,280.059 C448.879,280.059 448.805,280.059 448.731,280.059 C448.731,280.207 448.731,280.355 448.731,280.503 C448.583,280.577 448.435,280.651 448.287,280.725 C448.287,280.873 448.287,281.022 448.287,281.170 C448.213,281.170 448.139,281.170 448.065,281.170 C448.065,281.318 448.065,281.466 448.065,281.614 C447.991,281.614 447.917,281.614 447.843,281.614 C447.843,281.762 447.843,281.910 447.843,282.058 C447.769,282.058 447.695,282.058 447.621,282.058 C447.621,282.206 447.621,282.354 447.621,282.502 C447.547,282.502 447.473,282.502 447.399,282.502 C447.399,282.650 447.399,282.798 447.399,282.946 C447.325,282.946 447.251,282.946 447.177,282.946 C447.177,283.094 447.177,283.242 447.177,283.390 C447.103,283.390 447.029,283.390 446.955,283.390 C446.955,283.538 446.955,283.686 446.955,283.834 C446.881,283.834 446.807,283.834 446.733,283.834 C446.733,283.982 446.733,284.130 446.733,284.278 C446.659,284.278 446.585,284.278 446.511,284.278 C446.511,284.426 446.511,284.574 446.511,284.722 C446.437,284.722 446.363,284.722 446.289,284.722 C446.141,285.166 445.993,285.610 445.845,286.054 C445.771,286.054 445.697,286.054 445.623,286.054 C445.623,286.276 445.623,286.498 445.623,286.720 C445.549,286.720 445.475,286.720 445.401,286.720 C445.253,287.164 445.105,287.608 444.958,288.052 C444.884,288.052 444.810,288.052 444.736,288.052 C444.736,288.200 444.736,288.348 444.736,288.496 C444.662,288.496 444.588,288.496 444.514,288.496 C444.514,288.718 444.514,288.940 444.514,289.162 C444.440,289.162 444.366,289.162 444.292,289.162 C444.218,289.458 444.144,289.754 444.070,290.050 C443.996,290.050 443.922,290.050 443.848,290.050 C443.848,290.272 443.848,290.494 443.848,290.716 C443.774,290.716 443.700,290.716 443.626,290.716 C443.626,290.864 443.626,291.012 443.626,291.160 C443.552,291.160 443.478,291.160 443.404,291.160 C443.404,291.382 443.404,291.604 443.404,291.826 C443.330,291.826 443.256,291.826 443.182,291.826 C443.108,292.196 443.034,292.566 442.960,292.936 C442.886,292.936 442.812,292.936 442.738,292.936 C442.738,293.084 442.738,293.232 442.738,293.380 C442.664,293.380 442.590,293.380 442.516,293.380 C442.516,293.602 442.516,293.824 442.516,294.046 C442.442,294.046 442.368,294.046 442.294,294.046 C442.294,294.194 442.294,294.342 442.294,294.490 C442.220,294.490 442.146,294.490 442.072,294.490 C441.924,295.156 441.776,295.822 441.628,296.488 C441.554,296.488 441.480,296.488 441.406,296.488 C441.406,296.636 441.406,296.784 441.406,296.932 C441.332,296.932 441.258,296.932 441.184,296.932 C441.036,297.598 440.888,298.265 440.740,298.931 C440.666,298.931 440.592,298.931 440.518,298.931 C440.518,299.153 440.518,299.375 440.518,299.597 C440.444,299.597 440.370,299.597 440.296,299.597 C440.296,299.819 440.296,300.041 440.296,300.263 C440.222,300.263 440.148,300.263 440.075,300.263 C440.075,300.485 440.075,300.707 440.075,300.929 C440.001,300.929 439.927,300.929 439.853,300.929 C439.853,301.151 439.853,301.373 439.853,301.595 C439.779,301.595 439.705,301.595 439.631,301.595 C439.557,302.113 439.483,302.631 439.409,303.149 C439.335,303.149 439.261,303.149 439.187,303.149 C439.113,303.667 439.039,304.185 438.965,304.703 C438.891,304.703 438.817,304.703 438.743,304.703 C438.669,305.221 438.595,305.739 438.521,306.257 C438.447,306.257 438.373,306.257 438.299,306.257 C437.485,309.957 436.671,313.658 435.857,317.358 C435.857,317.802 435.857,318.246 435.857,318.690 C435.315,320.502 435.285,323.060 434.748,324.906 C434.748,325.646 434.748,326.386 434.748,327.126 C434.674,327.126 434.600,327.126 434.526,327.126 C434.526,327.866 434.526,328.606 434.526,329.346 C434.452,329.346 434.378,329.346 434.304,329.346 C434.304,330.382 434.304,331.419 434.304,332.455 C434.230,332.455 434.156,332.455 434.082,332.455 C434.082,333.787 434.082,335.119 434.082,336.451 C433.404,338.846 433.859,343.949 433.860,346.885 C433.860,356.505 433.860,366.128 433.860,375.747 C433.860,391.509 433.860,407.275 433.860,423.036 C410.409,423.036 386.951,423.036 363.500,423.036 C363.500,455.447 363.500,487.867 363.500,520.278 C386.951,520.278 410.409,520.278 433.860,520.278 C433.860,608.926 433.860,697.602 433.860,786.250 C468.037,786.250 502.225,786.250 536.403,786.250 C536.403,697.602 536.403,608.926 536.403,520.278 C569.545,520.278 602.697,520.278 635.839,520.278 C637.392,487.867 638.946,455.447 640.500,423.036 C605.804,423.036 571.099,423.036 536.403,423.036 C536.403,404.315 536.403,385.588 536.403,366.867 C536.403,363.463 536.403,360.058 536.403,356.654 C536.403,354.937 536.246,352.678 536.625,351.326 Z" id="path-1" class="cls-2" fill-rule="evenodd"/>
</svg>
