<svg xmlns="http://www.w3.org/2000/svg" xmlns:xlink="http://www.w3.org/1999/xlink" preserveAspectRatio="xMidYMid" width="1004" height="1004" viewBox="0 0 1004 1004">
  <defs>
    <style>

      .cls-2 {
        fill: #ffffff;
      }
    </style>
  </defs>
  <path d="M501.875,1003.750 C224.697,1003.750 -0.000,779.053 -0.000,501.875 C-0.000,224.697 224.697,-0.000 501.875,-0.000 C779.053,-0.000 1003.750,224.697 1003.750,501.875 C1003.750,779.053 779.053,1003.750 501.875,1003.750 ZM733.000,401.478 C732.999,387.069 731.773,373.235 728.333,362.272 C728.333,360.717 728.333,359.160 728.333,357.605 C728.022,357.605 727.710,357.605 727.399,357.605 C727.399,356.360 727.399,355.116 727.399,353.871 C727.088,353.871 726.777,353.871 726.466,353.871 C726.466,352.938 726.466,352.004 726.466,351.071 C726.155,351.071 725.843,351.071 725.532,351.071 C725.532,349.826 725.532,348.581 725.532,347.337 C725.221,347.337 724.910,347.337 724.599,347.337 C724.599,346.403 724.599,345.470 724.599,344.536 C724.288,344.536 723.976,344.536 723.665,344.536 C723.665,343.603 723.665,342.669 723.665,341.736 C723.354,341.736 723.043,341.736 722.732,341.736 C722.732,340.803 722.732,339.869 722.732,338.936 C722.421,338.936 722.110,338.936 721.798,338.936 C721.798,338.002 721.798,337.069 721.798,336.135 C721.487,336.135 721.176,336.135 720.865,336.135 C720.865,335.513 720.865,334.891 720.865,334.268 C720.554,334.268 720.243,334.268 719.931,334.268 C719.931,333.335 719.931,332.401 719.931,331.468 C719.620,331.468 719.309,331.468 718.998,331.468 C718.998,330.846 718.998,330.223 718.998,329.601 C718.687,329.601 718.376,329.601 718.065,329.601 C718.065,328.668 718.065,327.734 718.065,326.801 C717.753,326.801 717.442,326.801 717.131,326.801 C716.509,324.934 715.886,323.067 715.264,321.200 C714.953,321.200 714.642,321.200 714.331,321.200 C714.331,320.578 714.331,319.955 714.331,319.333 C714.020,319.333 713.708,319.333 713.397,319.333 C713.397,318.711 713.397,318.088 713.397,317.466 C713.086,317.466 712.775,317.466 712.464,317.466 C712.464,316.844 712.464,316.221 712.464,315.599 C712.153,315.599 711.841,315.599 711.530,315.599 C711.530,314.977 711.530,314.354 711.530,313.732 C711.219,313.732 710.908,313.732 710.597,313.732 C710.597,313.110 710.597,312.487 710.597,311.865 C710.286,311.865 709.974,311.865 709.663,311.865 C709.663,311.243 709.663,310.620 709.663,309.998 C709.352,309.998 709.041,309.998 708.730,309.998 C708.730,309.376 708.730,308.754 708.730,308.131 C708.108,307.820 707.485,307.509 706.863,307.198 C706.552,305.953 706.241,304.708 705.929,303.464 C705.307,303.153 704.685,302.842 704.062,302.531 C703.751,301.286 703.440,300.041 703.129,298.797 C702.818,298.797 702.507,298.797 702.196,298.797 C701.884,297.863 701.573,296.930 701.262,295.996 C700.640,295.685 700.017,295.374 699.395,295.063 C699.395,294.441 699.395,293.818 699.395,293.196 C698.462,292.574 697.528,291.951 696.595,291.329 C696.595,290.707 696.595,290.084 696.595,289.462 C695.661,288.840 694.728,288.217 693.794,287.595 C693.794,286.973 693.794,286.350 693.794,285.728 C692.861,285.106 691.927,284.484 690.994,283.861 C690.994,283.239 690.994,282.617 690.994,281.994 C689.127,280.439 687.260,278.883 685.393,277.327 C685.393,276.705 685.393,276.082 685.393,275.460 C682.282,272.660 679.170,269.859 676.058,267.059 C672.947,263.637 669.835,260.213 666.724,256.791 C666.102,256.791 665.479,256.791 664.857,256.791 C663.612,255.235 662.367,253.679 661.123,252.124 C660.501,252.124 659.878,252.124 659.256,252.124 C658.634,251.190 658.011,250.256 657.389,249.323 C656.767,249.323 656.144,249.323 655.522,249.323 C654.900,248.390 654.277,247.456 653.655,246.523 C653.033,246.523 652.411,246.523 651.788,246.523 C651.166,245.589 650.544,244.656 649.921,243.722 C649.299,243.722 648.677,243.722 648.054,243.722 C647.743,243.100 647.432,242.478 647.121,241.855 C646.188,241.544 645.254,241.233 644.321,240.922 C644.321,240.611 644.321,240.300 644.321,239.988 C643.698,239.988 643.076,239.988 642.454,239.988 C642.143,239.366 641.831,238.744 641.520,238.122 C640.587,237.810 639.653,237.499 638.720,237.188 C638.720,236.877 638.720,236.566 638.720,236.255 C636.853,235.632 634.986,235.010 633.119,234.388 C632.808,233.765 632.497,233.143 632.185,232.521 C631.563,232.521 630.941,232.521 630.319,232.521 C630.319,232.210 630.319,231.898 630.319,231.587 C629.696,231.587 629.074,231.587 628.452,231.587 C628.452,231.276 628.452,230.965 628.452,230.654 C627.829,230.654 627.207,230.654 626.585,230.654 C626.585,230.343 626.585,230.032 626.585,229.720 C625.962,229.720 625.340,229.720 624.718,229.720 C624.718,229.409 624.718,229.098 624.718,228.787 C624.095,228.787 623.473,228.787 622.851,228.787 C622.851,228.476 622.851,228.165 622.851,227.853 C622.229,227.853 621.606,227.853 620.984,227.853 C620.984,227.542 620.984,227.231 620.984,226.920 C620.362,226.920 619.739,226.920 619.117,226.920 C619.117,226.609 619.117,226.298 619.117,225.987 C618.495,225.987 617.872,225.987 617.250,225.987 C617.250,225.675 617.250,225.364 617.250,225.053 C615.383,224.431 613.516,223.808 611.649,223.186 C611.649,222.875 611.649,222.564 611.649,222.253 C599.515,218.208 587.378,214.162 575.244,210.118 C570.577,209.495 565.909,208.873 561.242,208.251 C561.242,207.940 561.242,207.628 561.242,207.317 C559.686,207.317 558.130,207.317 556.575,207.317 C556.575,207.006 556.575,206.695 556.575,206.384 C554.397,206.384 552.218,206.384 550.040,206.384 C550.040,206.073 550.040,205.761 550.040,205.450 C547.240,205.450 544.439,205.450 541.639,205.450 C541.639,205.139 541.639,204.828 541.639,204.517 C537.594,204.517 533.549,204.517 529.504,204.517 C525.876,203.500 504.477,202.233 499.633,203.583 C499.633,203.895 499.633,204.206 499.633,204.517 C495.277,204.517 490.920,204.517 486.565,204.517 C486.565,204.828 486.565,205.139 486.565,205.450 C483.453,205.450 480.341,205.450 477.230,205.450 C477.230,205.761 477.230,206.073 477.230,206.384 C475.052,206.384 472.873,206.384 470.696,206.384 C465.926,207.750 459.339,208.733 454.827,210.118 C453.271,210.118 451.715,210.118 450.159,210.118 C450.159,210.429 450.159,210.740 450.159,211.051 C448.915,211.051 447.670,211.051 446.425,211.051 C446.425,211.362 446.425,211.673 446.425,211.985 C444.870,211.985 443.314,211.985 441.758,211.985 C429.624,216.029 417.487,220.075 405.353,224.120 C405.353,224.431 405.353,224.742 405.353,225.053 C404.108,225.364 402.863,225.675 401.619,225.987 C401.619,226.298 401.619,226.609 401.619,226.920 C400.997,226.920 400.374,226.920 399.752,226.920 C399.752,227.231 399.752,227.542 399.752,227.853 C398.819,227.853 397.885,227.853 396.952,227.853 C396.952,228.165 396.952,228.476 396.952,228.787 C395.085,229.409 393.218,230.032 391.351,230.654 C391.351,230.965 391.351,231.276 391.351,231.587 C390.729,231.587 390.106,231.587 389.484,231.587 C389.484,231.898 389.484,232.210 389.484,232.521 C388.239,232.832 386.994,233.143 385.750,233.454 C385.439,234.076 385.128,234.699 384.817,235.321 C382.950,235.943 381.082,236.566 379.216,237.188 C378.905,237.810 378.593,238.433 378.282,239.055 C377.038,239.366 375.793,239.677 374.548,239.988 C374.237,240.611 373.926,241.233 373.615,241.855 C372.370,242.167 371.126,242.478 369.881,242.789 C369.570,243.411 369.259,244.034 368.948,244.656 C368.325,244.656 367.703,244.656 367.081,244.656 C367.081,244.967 367.081,245.278 367.081,245.589 C366.147,245.900 365.214,246.212 364.280,246.523 C363.969,247.145 363.658,247.767 363.347,248.390 C362.725,248.390 362.102,248.390 361.480,248.390 C360.858,249.323 360.235,250.257 359.613,251.190 C358.991,251.190 358.368,251.190 357.746,251.190 C357.124,252.123 356.501,253.057 355.879,253.990 C355.257,253.990 354.634,253.990 354.012,253.990 C353.079,255.235 352.145,256.480 351.212,257.724 C350.589,257.724 349.967,257.724 349.345,257.724 C348.411,258.969 347.478,260.214 346.544,261.458 C345.922,261.458 345.300,261.458 344.677,261.458 C340.633,265.814 336.587,270.171 332.542,274.527 C328.809,277.949 325.074,281.372 321.341,284.795 C321.341,285.417 321.341,286.039 321.341,286.662 C319.785,287.906 318.229,289.151 316.673,290.396 C316.673,291.018 316.673,291.640 316.673,292.262 C315.429,293.196 314.184,294.129 312.940,295.063 C312.940,295.685 312.940,296.308 312.940,296.930 C312.006,297.552 311.072,298.174 310.139,298.797 C310.139,299.419 310.139,300.041 310.139,300.664 C309.517,300.975 308.894,301.286 308.272,301.597 C307.961,302.530 307.650,303.464 307.339,304.397 C307.028,304.397 306.716,304.397 306.405,304.397 C306.405,305.020 306.405,305.642 306.405,306.264 C305.783,306.576 305.161,306.887 304.538,307.198 C304.538,307.820 304.538,308.443 304.538,309.065 C303.916,309.376 303.294,309.687 302.671,309.998 C302.671,310.620 302.671,311.243 302.671,311.865 C302.049,312.176 301.427,312.488 300.804,312.799 C300.493,314.043 300.182,315.288 299.871,316.532 C299.249,316.844 298.626,317.155 298.004,317.466 C298.004,318.088 298.004,318.711 298.004,319.333 C297.693,319.333 297.382,319.333 297.071,319.333 C297.071,319.955 297.071,320.578 297.071,321.200 C296.759,321.200 296.448,321.200 296.137,321.200 C296.137,321.822 296.137,322.444 296.137,323.067 C295.826,323.067 295.515,323.067 295.204,323.067 C295.204,323.689 295.204,324.311 295.204,324.934 C294.581,325.245 293.959,325.556 293.337,325.867 C293.026,327.112 292.714,328.356 292.403,329.601 C292.092,329.601 291.781,329.601 291.470,329.601 C291.159,330.845 290.847,332.090 290.536,333.335 C290.225,333.335 289.914,333.335 289.603,333.335 C289.603,334.268 289.603,335.202 289.603,336.135 C289.292,336.135 288.980,336.135 288.669,336.135 C288.669,336.757 288.669,337.380 288.669,338.002 C288.358,338.002 288.047,338.002 287.736,338.002 C287.425,339.247 287.114,340.492 286.802,341.736 C286.491,341.736 286.180,341.736 285.869,341.736 C285.869,342.669 285.869,343.603 285.869,344.536 C285.558,344.536 285.247,344.536 284.935,344.536 C284.935,345.159 284.935,345.781 284.935,346.403 C284.624,346.403 284.313,346.403 284.002,346.403 C284.002,347.337 284.002,348.270 284.002,349.204 C283.691,349.204 283.380,349.204 283.069,349.204 C283.069,349.826 283.069,350.448 283.069,351.071 C282.757,351.071 282.446,351.071 282.135,351.071 C282.135,352.004 282.135,352.938 282.135,353.871 C281.824,353.871 281.513,353.871 281.202,353.871 C281.202,354.804 281.202,355.738 281.202,356.671 C280.890,356.671 280.579,356.671 280.268,356.671 C280.268,357.605 280.268,358.538 280.268,359.472 C279.957,359.472 279.646,359.472 279.335,359.472 C279.335,360.405 279.335,361.339 279.335,362.272 C279.024,362.272 278.712,362.272 278.401,362.272 C278.401,363.517 278.401,364.762 278.401,366.006 C278.090,366.006 277.779,366.006 277.468,366.006 C277.468,366.939 277.468,367.873 277.468,368.806 C277.157,368.806 276.845,368.806 276.534,368.806 C276.534,370.051 276.534,371.296 276.534,372.540 C276.223,372.540 275.912,372.540 275.601,372.540 C275.601,373.785 275.601,375.030 275.601,376.274 C275.290,376.274 274.978,376.274 274.667,376.274 C274.667,377.830 274.667,379.386 274.667,380.941 C274.356,380.941 274.045,380.941 273.734,380.941 C273.734,382.497 273.734,384.053 273.734,385.609 C273.423,385.609 273.112,385.609 272.800,385.609 C272.800,387.476 272.800,389.343 272.800,391.210 C272.489,391.210 272.178,391.210 271.867,391.210 C271.867,393.699 271.867,396.188 271.867,398.677 C271.556,398.677 271.245,398.677 270.933,398.677 C270.933,403.033 270.933,407.390 270.933,411.746 C270.622,411.746 270.311,411.746 270.000,411.746 C270.000,416.413 270.000,421.081 270.000,425.748 C270.311,425.748 270.622,425.748 270.933,425.748 C270.933,430.415 270.933,435.083 270.933,439.750 C271.245,439.750 271.556,439.750 271.867,439.750 C271.867,442.550 271.867,445.351 271.867,448.151 C272.178,448.151 272.489,448.151 272.800,448.151 C272.800,450.018 272.800,451.885 272.800,453.752 C273.112,453.752 273.423,453.752 273.734,453.752 C273.734,455.307 273.734,456.863 273.734,458.419 C274.045,458.419 274.356,458.419 274.667,458.419 C274.667,459.975 274.667,461.531 274.667,463.086 C277.467,472.109 280.268,481.134 283.069,490.157 C283.380,490.157 283.691,490.157 284.002,490.157 C284.624,492.023 285.247,493.891 285.869,495.757 C286.180,495.757 286.491,495.757 286.802,495.757 C286.802,496.380 286.802,497.002 286.802,497.624 C287.114,497.624 287.425,497.624 287.736,497.624 C287.736,498.247 287.736,498.869 287.736,499.491 C288.047,499.491 288.358,499.491 288.669,499.491 C289.292,501.358 289.914,503.225 290.536,505.092 C291.159,505.403 291.781,505.714 292.403,506.026 C292.714,507.270 293.026,508.515 293.337,509.759 C293.959,510.071 294.581,510.382 295.204,510.693 C295.204,511.315 295.204,511.938 295.204,512.560 C295.826,512.871 296.448,513.182 297.071,513.493 C297.071,514.116 297.071,514.738 297.071,515.360 C298.004,515.982 298.938,516.605 299.871,517.227 C299.871,517.849 299.871,518.472 299.871,519.094 C301.738,520.650 303.605,522.206 305.472,523.761 C305.472,524.384 305.472,525.006 305.472,525.628 C306.716,526.562 307.961,527.495 309.206,528.429 C309.517,529.051 309.828,529.673 310.139,530.296 C310.761,530.296 311.384,530.296 312.006,530.296 C313.562,532.162 315.118,534.030 316.673,535.896 C317.296,535.896 317.918,535.896 318.540,535.896 C319.163,536.830 319.785,537.763 320.407,538.697 C321.030,538.697 321.652,538.697 322.274,538.697 C322.585,539.319 322.897,539.941 323.208,540.564 C323.830,540.564 324.452,540.564 325.075,540.564 C325.386,541.186 325.697,541.808 326.008,542.431 C327.253,542.742 328.497,543.053 329.742,543.364 C329.742,543.675 329.742,543.986 329.742,544.298 C330.364,544.298 330.987,544.298 331.609,544.298 C331.609,544.609 331.609,544.920 331.609,545.231 C332.231,545.231 332.854,545.231 333.476,545.231 C333.476,545.542 333.476,545.853 333.476,546.164 C334.098,546.164 334.720,546.164 335.343,546.164 C335.343,546.476 335.343,546.787 335.343,547.098 C335.965,547.098 336.587,547.098 337.210,547.098 C337.210,547.409 337.210,547.720 337.210,548.031 C337.832,548.031 338.454,548.031 339.077,548.031 C339.077,548.343 339.077,548.654 339.077,548.965 C339.699,548.965 340.321,548.965 340.944,548.965 C340.944,549.276 340.944,549.587 340.944,549.898 C342.499,549.898 344.055,549.898 345.611,549.898 C345.611,550.209 345.611,550.521 345.611,550.832 C347.478,550.521 349.345,550.209 351.212,549.898 C351.212,549.587 351.212,549.276 351.212,548.965 C351.523,548.965 351.834,548.965 352.145,548.965 C352.456,548.965 352.768,548.965 353.079,548.965 C353.701,548.032 354.323,547.098 354.946,546.164 C355.257,546.164 355.568,546.164 355.879,546.164 C356.190,544.920 356.501,543.675 356.813,542.431 C357.124,542.431 357.435,542.431 357.746,542.431 C359.613,534.030 361.480,525.627 363.347,517.227 C363.658,517.227 363.969,517.227 364.280,517.227 C364.280,515.983 364.280,514.738 364.280,513.493 C364.591,513.493 364.903,513.493 365.214,513.493 C365.525,510.071 365.836,506.648 366.147,503.225 C365.836,503.225 365.525,503.225 365.214,503.225 C365.214,502.292 365.214,501.358 365.214,500.425 C364.591,500.114 363.969,499.802 363.347,499.491 C363.347,498.869 363.347,498.247 363.347,497.624 C362.725,497.313 362.102,497.002 361.480,496.691 C361.480,496.069 361.480,495.446 361.480,494.824 C359.924,493.580 358.368,492.335 356.813,491.090 C356.813,490.468 356.813,489.845 356.813,489.223 C356.190,488.912 355.568,488.601 354.946,488.290 C354.946,487.668 354.946,487.045 354.946,486.423 C354.012,485.801 353.079,485.178 352.145,484.556 C351.834,483.311 351.523,482.067 351.212,480.822 C350.589,480.511 349.967,480.200 349.345,479.889 C349.034,478.644 348.722,477.399 348.411,476.155 C348.100,476.155 347.789,476.155 347.478,476.155 C347.167,474.910 346.855,473.665 346.544,472.421 C346.233,472.421 345.922,472.421 345.611,472.421 C345.300,470.865 344.989,469.309 344.677,467.754 C344.366,467.754 344.055,467.754 343.744,467.754 C343.122,464.953 342.499,462.153 341.877,459.352 C341.566,459.352 341.255,459.352 340.944,459.352 C340.944,458.108 340.944,456.863 340.944,455.619 C340.632,455.619 340.321,455.619 340.010,455.619 C340.010,454.063 340.010,452.507 340.010,450.951 C339.699,450.951 339.388,450.951 339.077,450.951 C339.077,449.396 339.077,447.840 339.077,446.284 C338.765,446.284 338.454,446.284 338.143,446.284 C338.143,443.484 338.143,440.683 338.143,437.883 C337.832,437.883 337.521,437.883 337.210,437.883 C336.019,433.619 337.294,417.571 338.143,414.546 C338.143,411.435 338.143,408.323 338.143,405.212 C338.454,405.212 338.765,405.212 339.077,405.212 C339.077,403.034 339.077,400.855 339.077,398.677 C339.388,398.677 339.699,398.677 340.010,398.677 C340.010,396.811 340.010,394.943 340.010,393.076 C340.321,393.076 340.632,393.076 340.944,393.076 C340.944,391.832 340.944,390.587 340.944,389.343 C341.255,389.343 341.566,389.343 341.877,389.343 C341.877,387.787 341.877,386.231 341.877,384.675 C344.366,377.208 346.856,369.739 349.345,362.272 C349.656,362.272 349.967,362.272 350.278,362.272 C350.278,361.650 350.278,361.028 350.278,360.405 C350.589,360.405 350.901,360.405 351.212,360.405 C351.212,359.472 351.212,358.538 351.212,357.605 C351.523,357.605 351.834,357.605 352.145,357.605 C352.767,355.738 353.390,353.871 354.012,352.004 C354.323,352.004 354.634,352.004 354.946,352.004 C354.946,351.382 354.946,350.759 354.946,350.137 C355.257,350.137 355.568,350.137 355.879,350.137 C356.501,348.270 357.124,346.403 357.746,344.536 C358.368,344.225 358.991,343.914 359.613,343.603 C359.924,342.358 360.235,341.114 360.546,339.869 C360.857,339.869 361.169,339.869 361.480,339.869 C361.791,338.936 362.102,338.002 362.413,337.069 C363.036,336.758 363.658,336.446 364.280,336.135 C364.591,334.891 364.903,333.646 365.214,332.401 C366.147,331.779 367.081,331.157 368.014,330.534 C368.014,329.912 368.014,329.290 368.014,328.668 C368.947,328.045 369.881,327.423 370.815,326.801 C370.815,326.178 370.815,325.556 370.815,324.934 C371.748,324.311 372.682,323.689 373.615,323.067 C373.615,322.444 373.615,321.822 373.615,321.200 C375.793,319.333 377.971,317.466 380.149,315.599 C380.149,314.977 380.149,314.354 380.149,313.732 C381.083,313.110 382.016,312.487 382.950,311.865 C384.816,309.687 386.684,307.509 388.550,305.331 C389.173,305.331 389.795,305.331 390.417,305.331 C391.973,303.464 393.529,301.597 395.085,299.730 C395.707,299.730 396.329,299.730 396.952,299.730 C397.885,298.486 398.819,297.241 399.752,295.996 C400.685,295.685 401.619,295.374 402.552,295.063 C402.864,294.441 403.175,293.818 403.486,293.196 C404.108,293.196 404.731,293.196 405.353,293.196 C405.664,292.574 405.975,291.951 406.286,291.329 C407.220,291.018 408.153,290.707 409.087,290.396 C409.087,290.084 409.087,289.773 409.087,289.462 C409.709,289.462 410.331,289.462 410.954,289.462 C411.265,288.840 411.576,288.217 411.887,287.595 C413.132,287.284 414.376,286.973 415.621,286.662 C415.932,286.039 416.243,285.417 416.554,284.795 C418.421,284.172 420.288,283.550 422.155,282.928 C422.466,282.306 422.778,281.683 423.089,281.061 C423.711,281.061 424.333,281.061 424.956,281.061 C424.956,280.750 424.956,280.439 424.956,280.127 C425.578,280.127 426.200,280.127 426.823,280.127 C426.823,279.816 426.823,279.505 426.823,279.194 C427.756,279.194 428.690,279.194 429.623,279.194 C429.623,278.883 429.623,278.572 429.623,278.260 C430.245,278.260 430.868,278.260 431.490,278.260 C431.490,277.949 431.490,277.638 431.490,277.327 C432.734,277.016 433.979,276.705 435.224,276.394 C435.224,276.082 435.224,275.771 435.224,275.460 C436.157,275.460 437.091,275.460 438.024,275.460 C438.024,275.149 438.024,274.838 438.024,274.527 C438.646,274.527 439.269,274.527 439.891,274.527 C439.891,274.216 439.891,273.904 439.891,273.593 C441.758,273.282 443.625,272.971 445.492,272.660 C445.492,272.349 445.492,272.037 445.492,271.726 C446.425,271.726 447.359,271.726 448.292,271.726 C448.292,271.415 448.292,271.104 448.292,270.793 C449.226,270.793 450.159,270.793 451.093,270.793 C451.093,270.482 451.093,270.170 451.093,269.859 C452.026,269.859 452.960,269.859 453.893,269.859 C453.893,269.548 453.893,269.237 453.893,268.926 C455.138,268.926 456.383,268.926 457.627,268.926 C476.569,262.532 515.392,258.677 537.905,265.192 C541.328,265.503 544.751,265.814 548.173,266.125 C548.173,266.437 548.173,266.748 548.173,267.059 C549.418,267.059 550.663,267.059 551.907,267.059 C551.907,267.370 551.907,267.681 551.907,267.992 C553.152,267.992 554.397,267.992 555.641,267.992 C555.641,268.304 555.641,268.615 555.641,268.926 C556.575,268.926 557.508,268.926 558.442,268.926 C558.442,269.237 558.442,269.548 558.442,269.859 C560.619,270.170 562.798,270.482 564.976,270.793 C564.976,271.104 564.976,271.415 564.976,271.726 C565.598,271.726 566.220,271.726 566.843,271.726 C566.843,272.037 566.843,272.349 566.843,272.660 C568.709,272.971 570.577,273.282 572.444,273.593 C572.444,273.904 572.444,274.216 572.444,274.527 C573.688,274.838 574.933,275.149 576.177,275.460 C576.177,275.771 576.177,276.082 576.177,276.394 C578.978,277.327 581.779,278.261 584.579,279.194 C584.890,279.816 585.201,280.439 585.512,281.061 C587.379,281.683 589.246,282.306 591.113,282.928 C591.113,283.239 591.113,283.550 591.113,283.861 C592.046,284.172 592.980,284.484 593.913,284.795 C594.224,285.417 594.536,286.039 594.847,286.662 C595.469,286.662 596.091,286.662 596.714,286.662 C597.025,287.284 597.336,287.906 597.647,288.529 C598.269,288.529 598.892,288.529 599.514,288.529 C600.136,289.462 600.759,290.396 601.381,291.329 C602.003,291.329 602.626,291.329 603.248,291.329 C604.181,292.573 605.115,293.818 606.048,295.063 C606.671,295.063 607.293,295.063 607.915,295.063 C608.849,296.307 609.782,297.552 610.716,298.797 C613.516,301.286 616.317,303.775 619.117,306.264 C619.117,306.887 619.117,307.509 619.117,308.131 C620.361,309.065 621.606,309.998 622.851,310.932 C622.851,311.554 622.851,312.176 622.851,312.799 C623.784,313.421 624.718,314.043 625.651,314.666 C625.651,315.288 625.651,315.910 625.651,316.532 C626.273,316.844 626.896,317.155 627.518,317.466 C627.518,318.088 627.518,318.711 627.518,319.333 C628.140,319.644 628.763,319.955 629.385,320.266 C629.696,321.200 630.007,322.133 630.319,323.067 C630.630,323.067 630.941,323.067 631.252,323.067 C631.874,324.933 632.497,326.801 633.119,328.668 C633.430,328.668 633.741,328.668 634.052,328.668 C634.052,329.290 634.052,329.912 634.052,330.534 C634.364,330.534 634.675,330.534 634.986,330.534 C634.986,331.157 634.986,331.779 634.986,332.401 C635.297,332.401 635.608,332.401 635.919,332.401 C636.542,334.268 637.164,336.135 637.786,338.002 C638.097,338.002 638.409,338.002 638.720,338.002 C638.720,338.936 638.720,339.869 638.720,340.803 C639.031,340.803 639.342,340.803 639.653,340.803 C639.653,341.425 639.653,342.047 639.653,342.669 C639.964,342.669 640.276,342.669 640.587,342.669 C640.587,343.603 640.587,344.536 640.587,345.470 C640.898,345.470 641.209,345.470 641.520,345.470 C641.520,346.403 641.520,347.337 641.520,348.270 C641.831,348.270 642.143,348.270 642.454,348.270 C642.454,349.204 642.454,350.137 642.454,351.071 C642.765,351.071 643.076,351.071 643.387,351.071 C643.387,352.004 643.387,352.938 643.387,353.871 C643.698,353.871 644.009,353.871 644.321,353.871 C644.943,358.227 645.565,362.584 646.188,366.940 C648.877,375.806 651.053,400.981 648.054,411.746 C648.054,415.790 648.054,419.836 648.054,423.881 C647.743,423.881 647.432,423.881 647.121,423.881 C647.121,426.992 647.121,430.104 647.121,433.215 C646.810,433.215 646.499,433.215 646.188,433.215 C646.188,435.393 646.188,437.572 646.188,439.750 C645.876,439.750 645.565,439.750 645.254,439.750 C645.254,441.616 645.254,443.484 645.254,445.350 C644.943,445.350 644.632,445.350 644.321,445.350 C644.321,447.217 644.321,449.084 644.321,450.951 C644.009,450.951 643.698,450.951 643.387,450.951 C643.076,454.062 642.765,457.175 642.454,460.286 C642.143,460.286 641.831,460.286 641.520,460.286 C641.520,461.530 641.520,462.775 641.520,464.020 C641.209,464.020 640.898,464.020 640.587,464.020 C640.587,465.264 640.587,466.509 640.587,467.754 C640.276,467.754 639.964,467.754 639.653,467.754 C639.653,468.998 639.653,470.243 639.653,471.487 C639.342,471.487 639.031,471.487 638.720,471.487 C638.720,472.732 638.720,473.977 638.720,475.221 C638.409,475.221 638.097,475.221 637.786,475.221 C637.786,476.155 637.786,477.088 637.786,478.022 C637.475,478.022 637.164,478.022 636.853,478.022 C636.853,479.266 636.853,480.511 636.853,481.756 C632.186,493.267 627.518,504.782 622.851,516.294 C622.229,516.605 621.606,516.916 620.984,517.227 C620.984,517.849 620.984,518.472 620.984,519.094 C620.673,519.094 620.362,519.094 620.050,519.094 C620.050,519.716 620.050,520.339 620.050,520.961 C619.739,520.961 619.428,520.961 619.117,520.961 C619.117,521.583 619.117,522.206 619.117,522.828 C618.806,522.828 618.495,522.828 618.183,522.828 C618.183,523.450 618.183,524.073 618.183,524.695 C617.872,524.695 617.561,524.695 617.250,524.695 C616.939,525.628 616.628,526.562 616.317,527.495 C615.694,527.806 615.072,528.118 614.450,528.429 C614.450,529.051 614.450,529.673 614.450,530.296 C614.138,530.296 613.827,530.296 613.516,530.296 C613.205,531.229 612.894,532.163 612.583,533.096 C611.960,533.407 611.338,533.718 610.716,534.029 C610.716,534.652 610.716,535.274 610.716,535.896 C609.782,536.519 608.849,537.141 607.915,537.763 C607.915,538.386 607.915,539.008 607.915,539.630 C606.671,540.564 605.426,541.497 604.181,542.431 C604.181,543.053 604.181,543.675 604.181,544.298 C598.581,549.587 592.979,554.877 587.379,560.166 C586.757,560.166 586.134,560.166 585.512,560.166 C584.890,561.100 584.267,562.033 583.645,562.967 C583.023,562.967 582.400,562.967 581.778,562.967 C581.467,563.589 581.156,564.212 580.845,564.834 C578.978,565.456 577.111,566.078 575.244,566.701 C574.933,567.323 574.622,567.945 574.310,568.568 C573.377,568.568 572.443,568.568 571.510,568.568 C571.510,568.879 571.510,569.190 571.510,569.501 C570.266,569.812 569.021,570.123 567.776,570.435 C567.776,570.746 567.776,571.057 567.776,571.368 C565.909,571.679 564.042,571.990 562.175,572.301 C562.175,572.613 562.175,572.924 562.175,573.235 C561.242,573.235 560.308,573.235 559.375,573.235 C559.375,573.546 559.375,573.857 559.375,574.168 C555.787,575.432 536.708,577.553 531.371,576.035 C531.371,575.724 531.371,575.413 531.371,575.102 C529.504,575.102 527.637,575.102 525.770,575.102 C525.770,574.791 525.770,574.480 525.770,574.168 C524.837,574.168 523.903,574.168 522.970,574.168 C522.970,573.857 522.970,573.546 522.970,573.235 C522.036,573.235 521.103,573.235 520.169,573.235 C520.169,572.924 520.169,572.613 520.169,572.301 C519.236,572.301 518.302,572.301 517.369,572.301 C517.369,571.990 517.369,571.679 517.369,571.368 C515.502,570.746 513.635,570.123 511.768,569.501 C511.768,569.190 511.768,568.879 511.768,568.568 C510.524,568.256 509.279,567.945 508.034,567.634 C507.723,567.012 507.412,566.389 507.101,565.767 C506.479,565.767 505.856,565.767 505.234,565.767 C504.300,564.523 503.367,563.278 502.433,562.033 C501.811,562.033 501.189,562.033 500.567,562.033 C500.567,561.722 500.567,561.411 500.567,561.100 C499.633,560.478 498.700,559.855 497.766,559.233 C497.766,558.611 497.766,557.988 497.766,557.366 C496.522,556.433 495.277,555.499 494.032,554.566 C494.032,553.943 494.032,553.321 494.032,552.699 C493.410,552.388 492.788,552.076 492.165,551.765 C492.165,551.143 492.165,550.521 492.165,549.898 C491.543,549.587 490.921,549.276 490.298,548.965 C490.298,548.343 490.298,547.720 490.298,547.098 C489.987,547.098 489.676,547.098 489.365,547.098 C489.365,546.476 489.365,545.853 489.365,545.231 C489.054,545.231 488.743,545.231 488.431,545.231 C488.431,544.298 488.431,543.364 488.431,542.431 C488.120,542.431 487.809,542.431 487.498,542.431 C487.498,541.497 487.498,540.564 487.498,539.630 C487.187,539.630 486.876,539.630 486.565,539.630 C486.565,538.697 486.565,537.763 486.565,536.830 C486.253,536.830 485.942,536.830 485.631,536.830 C485.631,535.274 485.631,533.718 485.631,532.163 C484.819,529.444 483.523,518.483 484.698,514.427 C492.043,489.067 498.537,463.660 507.101,439.750 C507.101,438.505 507.101,437.260 507.101,436.016 C507.412,436.016 507.723,436.016 508.034,436.016 C508.034,435.082 508.034,434.149 508.034,433.215 C508.345,433.215 508.657,433.215 508.968,433.215 C508.968,431.971 508.968,430.726 508.968,429.482 C509.279,429.482 509.590,429.482 509.901,429.482 C509.901,428.237 509.901,426.992 509.901,425.748 C510.212,425.748 510.524,425.748 510.835,425.748 C510.835,424.503 510.835,423.258 510.835,422.014 C511.146,422.014 511.457,422.014 511.768,422.014 C511.768,420.769 511.768,419.524 511.768,418.280 C512.079,418.280 512.390,418.280 512.702,418.280 C512.702,416.724 512.702,415.168 512.702,413.613 C513.013,413.613 513.324,413.613 513.635,413.613 C513.635,412.057 513.635,410.501 513.635,408.945 C513.946,408.945 514.257,408.945 514.569,408.945 C514.569,407.390 514.569,405.834 514.569,404.278 C514.880,404.278 515.191,404.278 515.502,404.278 C515.502,401.478 515.502,398.677 515.502,395.877 C515.813,395.877 516.124,395.877 516.435,395.877 C516.435,390.899 516.435,385.919 516.435,380.941 C516.124,380.941 515.813,380.941 515.502,380.941 C515.502,378.764 515.502,376.585 515.502,374.407 C515.191,374.407 514.880,374.407 514.569,374.407 C514.569,373.163 514.569,371.918 514.569,370.673 C514.257,370.673 513.946,370.673 513.635,370.673 C513.635,369.429 513.635,368.184 513.635,366.940 C513.324,366.940 513.013,366.940 512.702,366.940 C512.702,366.317 512.702,365.695 512.702,365.073 C512.390,365.073 512.079,365.073 511.768,365.073 C511.768,364.139 511.768,363.206 511.768,362.272 C511.457,362.272 511.146,362.272 510.835,362.272 C510.835,361.650 510.835,361.028 510.835,360.405 C510.524,360.405 510.212,360.405 509.901,360.405 C509.901,359.783 509.901,359.161 509.901,358.538 C509.279,358.227 508.657,357.916 508.034,357.605 C507.723,356.360 507.412,355.116 507.101,353.871 C505.856,352.938 504.611,352.004 503.367,351.071 C501.500,348.893 499.633,346.714 497.766,344.536 C497.144,344.536 496.521,344.536 495.899,344.536 C495.588,343.914 495.277,343.292 494.966,342.669 C494.343,342.669 493.721,342.669 493.099,342.669 C493.099,342.358 493.099,342.047 493.099,341.736 C491.854,341.425 490.609,341.114 489.365,340.803 C489.365,340.491 489.365,340.180 489.365,339.869 C487.498,339.558 485.631,339.247 483.764,338.936 C483.764,338.624 483.764,338.313 483.764,338.002 C482.208,338.002 480.652,338.002 479.097,338.002 C479.097,337.691 479.097,337.380 479.097,337.069 C472.633,335.169 454.853,338.258 451.093,339.869 C451.093,340.180 451.093,340.491 451.093,340.803 C450.470,340.803 449.848,340.803 449.226,340.803 C449.226,341.114 449.226,341.425 449.226,341.736 C448.292,341.736 447.359,341.736 446.425,341.736 C446.425,342.047 446.425,342.358 446.425,342.669 C445.803,342.669 445.181,342.669 444.558,342.669 C444.247,343.292 443.936,343.914 443.625,344.536 C442.381,344.848 441.136,345.159 439.891,345.470 C439.580,346.092 439.269,346.715 438.958,347.337 C438.335,347.337 437.713,347.337 437.091,347.337 C435.846,348.892 434.601,350.448 433.357,352.004 C432.735,352.004 432.112,352.004 431.490,352.004 C431.490,352.315 431.490,352.626 431.490,352.938 C430.245,353.871 429.001,354.805 427.756,355.738 C427.756,356.360 427.756,356.983 427.756,357.605 C426.200,358.849 424.644,360.094 423.089,361.339 C423.089,361.961 423.089,362.583 423.089,363.206 C422.466,363.517 421.844,363.828 421.222,364.139 C420.911,365.072 420.599,366.006 420.288,366.940 C419.977,366.940 419.666,366.940 419.355,366.940 C419.355,367.562 419.355,368.184 419.355,368.806 C418.733,369.118 418.110,369.429 417.488,369.740 C417.177,370.984 416.866,372.229 416.554,373.474 C416.243,373.474 415.932,373.474 415.621,373.474 C415.621,374.096 415.621,374.718 415.621,375.341 C415.310,375.341 414.999,375.341 414.687,375.341 C414.065,377.207 413.443,379.075 412.821,380.941 C412.509,380.941 412.198,380.941 411.887,380.941 C411.887,381.875 411.887,382.808 411.887,383.742 C411.576,383.742 411.265,383.742 410.954,383.742 C410.954,384.364 410.954,384.987 410.954,385.609 C410.643,385.609 410.331,385.609 410.020,385.609 C410.020,386.542 410.020,387.476 410.020,388.409 C409.709,388.409 409.398,388.409 409.087,388.409 C408.776,390.587 408.464,392.766 408.153,394.943 C407.842,394.943 407.531,394.943 407.220,394.943 C407.220,396.188 407.220,397.433 407.220,398.677 C406.909,398.677 406.597,398.677 406.286,398.677 C406.286,400.233 406.286,401.789 406.286,403.345 C405.975,403.345 405.664,403.345 405.353,403.345 C405.353,405.211 405.353,407.079 405.353,408.945 C405.042,408.945 404.730,408.945 404.419,408.945 C404.419,412.679 404.419,416.413 404.419,420.147 C404.108,420.147 403.797,420.147 403.486,420.147 C403.486,423.880 403.486,427.615 403.486,431.348 C403.797,431.348 404.108,431.348 404.419,431.348 C404.419,435.082 404.419,438.817 404.419,442.550 C404.730,442.550 405.042,442.550 405.353,442.550 C405.664,446.595 405.975,450.640 406.286,454.685 C406.597,454.685 406.909,454.685 407.220,454.685 C407.220,455.930 407.220,457.174 407.220,458.419 C407.531,458.419 407.842,458.419 408.153,458.419 C408.153,459.663 408.153,460.908 408.153,462.153 C408.464,462.153 408.776,462.153 409.087,462.153 C409.087,463.397 409.087,464.642 409.087,465.887 C409.398,465.887 409.709,465.887 410.020,465.887 C410.020,466.820 410.020,467.754 410.020,468.687 C410.331,468.687 410.643,468.687 410.954,468.687 C410.954,469.620 410.954,470.554 410.954,471.487 C411.265,471.487 411.576,471.487 411.887,471.487 C411.887,472.421 411.887,473.354 411.887,474.288 C412.198,474.288 412.509,474.288 412.821,474.288 C413.443,477.088 414.065,479.889 414.687,482.689 C414.376,482.689 414.065,482.689 413.754,482.689 C412.821,487.978 411.887,493.269 410.954,498.558 C407.916,508.074 405.598,519.883 402.552,529.362 C402.552,530.918 402.552,532.474 402.552,534.029 C402.241,534.029 401.930,534.029 401.619,534.029 C401.619,535.274 401.619,536.519 401.619,537.763 C401.308,537.763 400.997,537.763 400.685,537.763 C400.685,539.008 400.685,540.253 400.685,541.497 C400.374,541.497 400.063,541.497 399.752,541.497 C399.441,544.297 399.130,547.098 398.819,549.898 C398.507,549.898 398.196,549.898 397.885,549.898 C397.885,551.143 397.885,552.388 397.885,553.632 C397.574,553.632 397.263,553.632 396.952,553.632 C396.952,554.877 396.952,556.122 396.952,557.366 C396.640,557.366 396.329,557.366 396.018,557.366 C396.018,558.611 396.018,559.855 396.018,561.100 C395.707,561.100 395.396,561.100 395.085,561.100 C394.774,563.900 394.462,566.701 394.151,569.501 C389.631,582.913 387.285,598.988 382.950,612.440 C382.950,613.996 382.950,615.552 382.950,617.108 C382.638,617.108 382.327,617.108 382.016,617.108 C382.016,618.352 382.016,619.597 382.016,620.842 C381.705,620.842 381.394,620.842 381.083,620.842 C381.083,622.086 381.083,623.331 381.083,624.575 C380.772,624.575 380.460,624.575 380.149,624.575 C380.149,625.820 380.149,627.065 380.149,628.309 C379.838,628.309 379.527,628.309 379.216,628.309 C379.216,629.865 379.216,631.421 379.216,632.977 C375.305,645.190 372.793,659.898 368.948,672.182 C368.948,674.049 368.948,675.916 368.948,677.783 C368.636,677.783 368.325,677.783 368.014,677.783 C368.014,679.650 368.014,681.517 368.014,683.384 C367.703,683.384 367.392,683.384 367.081,683.384 C367.081,685.561 367.081,687.740 367.081,689.918 C366.770,689.918 366.458,689.918 366.147,689.918 C366.147,692.718 366.147,695.519 366.147,698.319 C365.836,698.319 365.525,698.319 365.214,698.319 C365.214,702.675 365.214,707.032 365.214,711.388 C363.139,718.722 363.205,740.440 365.214,747.793 C365.214,751.215 365.214,754.638 365.214,758.061 C365.525,763.039 365.836,768.018 366.147,772.996 C366.458,772.996 366.770,772.996 367.081,772.996 C367.081,776.107 367.081,779.219 367.081,782.331 C367.392,782.331 367.703,782.331 368.014,782.331 C369.577,787.981 367.290,795.616 370.815,799.133 C371.126,799.755 371.437,800.378 371.748,801.000 C378.871,800.852 377.300,799.387 380.149,795.399 C381.083,794.777 382.016,794.155 382.950,793.532 C382.950,792.910 382.950,792.288 382.950,791.665 C383.883,791.043 384.817,790.421 385.750,789.798 C385.750,789.176 385.750,788.554 385.750,787.932 C386.683,787.309 387.617,786.687 388.550,786.065 C388.550,785.442 388.550,784.820 388.550,784.198 C389.484,783.575 390.417,782.953 391.351,782.331 C391.351,781.708 391.351,781.086 391.351,780.464 C391.973,780.153 392.595,779.841 393.218,779.530 C393.529,778.597 393.840,777.663 394.151,776.730 C394.462,776.730 394.774,776.730 395.085,776.730 C395.085,776.108 395.085,775.485 395.085,774.863 C395.707,774.552 396.329,774.241 396.952,773.930 C396.952,773.307 396.952,772.685 396.952,772.063 C397.574,771.752 398.196,771.440 398.819,771.129 C398.819,770.507 398.819,769.884 398.819,769.262 C399.441,768.951 400.063,768.640 400.685,768.329 C400.685,767.707 400.685,767.084 400.685,766.462 C401.308,766.151 401.930,765.840 402.552,765.528 C402.552,764.906 402.552,764.284 402.552,763.661 C403.175,763.350 403.797,763.039 404.419,762.728 C404.730,761.795 405.042,760.861 405.353,759.928 C405.664,759.928 405.975,759.928 406.286,759.928 C406.597,758.683 406.909,757.438 407.220,756.194 C407.842,755.883 408.464,755.571 409.087,755.260 C409.398,754.327 409.709,753.393 410.020,752.460 C410.331,752.460 410.643,752.460 410.954,752.460 C411.576,750.593 412.198,748.726 412.821,746.859 C413.443,746.548 414.065,746.237 414.687,745.926 C414.687,745.303 414.687,744.681 414.687,744.059 C414.999,744.059 415.310,744.059 415.621,744.059 C415.621,743.436 415.621,742.814 415.621,742.192 C415.932,742.192 416.243,742.192 416.554,742.192 C416.554,741.570 416.554,740.947 416.554,740.325 C416.866,740.325 417.177,740.325 417.488,740.325 C417.488,739.703 417.488,739.080 417.488,738.458 C418.110,738.147 418.733,737.836 419.355,737.524 C419.355,736.902 419.355,736.280 419.355,735.658 C419.666,735.658 419.977,735.658 420.288,735.658 C420.288,735.035 420.288,734.413 420.288,733.791 C420.599,733.791 420.911,733.791 421.222,733.791 C421.222,733.168 421.222,732.546 421.222,731.924 C421.533,731.924 421.844,731.924 422.155,731.924 C422.155,731.301 422.155,730.679 422.155,730.057 C422.466,730.057 422.778,730.057 423.089,730.057 C423.089,729.435 423.089,728.812 423.089,728.190 C423.400,728.190 423.711,728.190 424.022,728.190 C424.022,727.568 424.022,726.945 424.022,726.323 C424.333,726.323 424.645,726.323 424.956,726.323 C425.578,724.456 426.200,722.589 426.823,720.722 C427.134,720.722 427.445,720.722 427.756,720.722 C427.756,719.789 427.756,718.855 427.756,717.922 C428.067,717.922 428.378,717.922 428.690,717.922 C428.690,717.300 428.690,716.677 428.690,716.055 C429.001,716.055 429.312,716.055 429.623,716.055 C429.623,715.433 429.623,714.810 429.623,714.188 C429.934,714.188 430.245,714.188 430.556,714.188 C430.556,713.566 430.556,712.943 430.556,712.321 C430.868,712.321 431.179,712.321 431.490,712.321 C431.490,711.388 431.490,710.454 431.490,709.521 C431.801,709.521 432.112,709.521 432.423,709.521 C432.423,708.898 432.423,708.276 432.423,707.654 C432.735,707.654 433.046,707.654 433.357,707.654 C433.668,705.787 433.979,703.920 434.290,702.053 C434.601,702.053 434.913,702.053 435.224,702.053 C435.224,701.431 435.224,700.808 435.224,700.186 C435.535,700.186 435.846,700.186 436.157,700.186 C436.780,697.386 437.402,694.585 438.024,691.785 C438.335,691.785 438.647,691.785 438.958,691.785 C438.958,690.540 438.958,689.295 438.958,688.051 C439.269,688.051 439.580,688.051 439.891,688.051 C439.891,687.118 439.891,686.184 439.891,685.251 C440.202,685.251 440.513,685.251 440.825,685.251 C440.825,684.006 440.825,682.761 440.825,681.517 C443.936,670.627 447.048,659.735 450.159,648.845 C450.470,646.356 450.782,643.867 451.093,641.378 C453.028,635.748 454.750,628.334 456.694,622.708 C457.005,620.220 457.316,617.730 457.627,615.241 C457.938,615.241 458.249,615.241 458.560,615.241 C460.116,608.085 461.672,600.927 463.228,593.771 C463.850,593.771 464.473,593.771 465.095,593.771 C466.654,600.854 477.396,609.513 482.831,613.374 C483.453,614.307 484.075,615.241 484.698,616.174 C485.320,616.174 485.942,616.174 486.565,616.174 C486.876,616.796 487.187,617.419 487.498,618.041 C488.742,618.352 489.987,618.664 491.232,618.975 C491.543,619.597 491.854,620.219 492.165,620.842 C494.032,621.464 495.899,622.086 497.766,622.708 C497.766,623.020 497.766,623.331 497.766,623.642 C498.388,623.642 499.011,623.642 499.633,623.642 C499.633,623.953 499.633,624.264 499.633,624.575 C501.500,625.198 503.367,625.820 505.234,626.442 C505.234,626.753 505.234,627.065 505.234,627.376 C506.167,627.376 507.101,627.376 508.034,627.376 C508.034,627.687 508.034,627.998 508.034,628.309 C508.657,628.309 509.279,628.309 509.901,628.309 C509.901,628.620 509.901,628.932 509.901,629.243 C510.835,629.243 511.768,629.243 512.702,629.243 C512.702,629.554 512.702,629.865 512.702,630.176 C513.635,630.176 514.569,630.176 515.502,630.176 C515.502,630.487 515.502,630.799 515.502,631.110 C516.747,631.110 517.991,631.110 519.236,631.110 C519.236,631.421 519.236,631.732 519.236,632.043 C520.480,632.043 521.725,632.043 522.970,632.043 C522.970,632.354 522.970,632.665 522.970,632.977 C524.214,632.977 525.459,632.977 526.704,632.977 C526.704,633.288 526.704,633.599 526.704,633.910 C531.682,634.221 536.661,634.532 541.639,634.844 C541.639,635.155 541.639,635.466 541.639,635.777 C550.351,635.466 559.065,635.155 567.776,634.844 C567.776,634.532 567.776,634.221 567.776,633.910 C571.821,633.599 575.867,633.288 579.911,632.977 C588.934,630.488 597.959,627.998 606.982,625.509 C606.982,625.198 606.982,624.887 606.982,624.575 C607.604,624.575 608.227,624.575 608.849,624.575 C608.849,624.264 608.849,623.953 608.849,623.642 C609.782,623.642 610.716,623.642 611.649,623.642 C611.649,623.331 611.649,623.020 611.649,622.708 C612.894,622.397 614.139,622.086 615.383,621.775 C615.383,621.464 615.383,621.153 615.383,620.842 C616.005,620.842 616.628,620.842 617.250,620.842 C617.250,620.530 617.250,620.219 617.250,619.908 C618.183,619.908 619.117,619.908 620.050,619.908 C620.050,619.597 620.050,619.286 620.050,618.975 C620.673,618.975 621.295,618.975 621.917,618.975 C621.917,618.664 621.917,618.352 621.917,618.041 C622.540,618.041 623.162,618.041 623.784,618.041 C624.095,617.419 624.407,616.796 624.718,616.174 C626.584,615.552 628.452,614.930 630.319,614.307 C630.319,613.996 630.319,613.685 630.319,613.374 C630.941,613.374 631.563,613.374 632.185,613.374 C632.497,612.752 632.808,612.129 633.119,611.507 C634.363,611.196 635.608,610.885 636.853,610.573 C637.164,609.951 637.475,609.329 637.786,608.707 C638.409,608.707 639.031,608.707 639.653,608.707 C639.964,608.084 640.276,607.462 640.587,606.840 C641.209,606.840 641.831,606.840 642.454,606.840 C643.076,605.906 643.698,604.973 644.321,604.039 C644.943,604.039 645.565,604.039 646.188,604.039 C646.810,603.106 647.432,602.172 648.054,601.239 C648.677,601.239 649.299,601.239 649.921,601.239 C650.855,599.994 651.788,598.749 652.722,597.505 C653.344,597.505 653.966,597.505 654.589,597.505 C656.455,595.327 658.323,593.149 660.190,590.971 C660.812,590.971 661.434,590.971 662.056,590.971 C662.679,590.037 663.301,589.104 663.923,588.170 C666.101,586.304 668.280,584.436 670.458,582.570 C670.458,581.947 670.458,581.325 670.458,580.703 C672.636,578.836 674.814,576.969 676.992,575.102 C676.992,574.480 676.992,573.857 676.992,573.235 C678.236,572.302 679.481,571.368 680.726,570.435 C680.726,569.812 680.726,569.190 680.726,568.568 C681.970,567.634 683.215,566.701 684.460,565.767 C684.460,565.145 684.460,564.523 684.460,563.900 C685.082,563.589 685.704,563.278 686.327,562.967 C686.327,562.345 686.327,561.722 686.327,561.100 C687.260,560.478 688.194,559.855 689.127,559.233 C689.127,558.611 689.127,557.988 689.127,557.366 C689.749,557.055 690.372,556.744 690.994,556.433 C690.994,555.810 690.994,555.188 690.994,554.566 C691.616,554.255 692.239,553.943 692.861,553.632 C693.172,552.388 693.483,551.143 693.794,549.898 C694.417,549.587 695.039,549.276 695.661,548.965 C695.972,547.720 696.284,546.476 696.595,545.231 C697.217,544.920 697.839,544.609 698.462,544.298 C698.462,543.675 698.462,543.053 698.462,542.431 C698.773,542.431 699.084,542.431 699.395,542.431 C699.395,541.808 699.395,541.186 699.395,540.564 C699.706,540.564 700.018,540.564 700.329,540.564 C700.329,539.941 700.329,539.319 700.329,538.697 C700.640,538.697 700.951,538.697 701.262,538.697 C701.262,538.075 701.262,537.452 701.262,536.830 C701.573,536.830 701.884,536.830 702.196,536.830 C702.196,536.208 702.196,535.585 702.196,534.963 C702.507,534.963 702.818,534.963 703.129,534.963 C703.129,534.341 703.129,533.718 703.129,533.096 C703.440,533.096 703.751,533.096 704.062,533.096 C704.062,532.474 704.062,531.851 704.062,531.229 C704.374,531.229 704.685,531.229 704.996,531.229 C704.996,530.607 704.996,529.984 704.996,529.362 C705.307,529.362 705.618,529.362 705.929,529.362 C705.929,528.740 705.929,528.117 705.929,527.495 C706.241,527.495 706.552,527.495 706.863,527.495 C707.485,525.628 708.108,523.761 708.730,521.894 C709.041,521.894 709.352,521.894 709.663,521.894 C709.663,520.961 709.663,520.027 709.663,519.094 C709.974,519.094 710.286,519.094 710.597,519.094 C710.908,517.850 711.219,516.605 711.530,515.360 C711.841,515.360 712.153,515.360 712.464,515.360 C712.775,513.493 713.086,511.626 713.397,509.759 C713.708,509.759 714.020,509.759 714.331,509.759 C714.331,509.137 714.331,508.515 714.331,507.892 C714.642,507.892 714.953,507.892 715.264,507.892 C715.886,505.092 716.509,502.291 717.131,499.491 C717.442,499.491 717.753,499.491 718.065,499.491 C718.065,498.558 718.065,497.624 718.065,496.691 C718.376,496.691 718.687,496.691 718.998,496.691 C718.998,495.758 718.998,494.824 718.998,493.891 C719.309,493.891 719.620,493.891 719.931,493.891 C719.931,492.957 719.931,492.024 719.931,491.090 C720.243,491.090 720.554,491.090 720.865,491.090 C721.176,488.912 721.487,486.734 721.798,484.556 C722.110,484.556 722.421,484.556 722.732,484.556 C723.354,480.822 723.977,477.088 724.599,473.354 C724.910,473.354 725.221,473.354 725.532,473.354 C726.155,468.687 726.777,464.019 727.399,459.352 C727.710,459.352 728.022,459.352 728.333,459.352 C728.644,455.308 728.955,451.262 729.266,447.217 C729.577,447.217 729.888,447.217 730.200,447.217 C730.200,444.728 730.200,442.239 730.200,439.750 C730.511,439.750 730.822,439.750 731.133,439.750 C731.133,436.638 731.133,433.526 731.133,430.415 C731.444,430.415 731.755,430.415 732.067,430.415 C732.067,426.059 732.067,421.702 732.067,417.347 C732.378,417.347 732.689,417.347 733.000,417.347 C733.000,412.057 733.000,406.767 733.000,401.478 Z" id="path-1" class="cls-2" fill-rule="evenodd"/>
</svg>
