<svg xmlns="http://www.w3.org/2000/svg" xmlns:xlink="http://www.w3.org/1999/xlink" preserveAspectRatio="xMidYMid" width="1008" height="1008" viewBox="0 0 1008 1008">
  <defs>
    <style>

      .cls-2 {
        fill: #ffffff;
      }
    </style>
  </defs>
  <path d="M504.000,1008.000 C225.649,1008.000 -0.000,782.351 -0.000,504.000 C-0.000,225.649 225.649,-0.000 504.000,-0.000 C782.351,-0.000 1008.000,225.649 1008.000,504.000 C1008.000,782.351 782.351,1008.000 504.000,1008.000 ZM503.500,108.000 C285.071,108.000 108.000,285.071 108.000,503.500 C108.000,721.929 285.071,899.000 503.500,899.000 C721.929,899.000 899.000,721.929 899.000,503.500 C899.000,285.071 721.929,108.000 503.500,108.000 ZM685.863,402.973 C685.601,402.973 685.340,402.973 685.078,402.973 C685.078,404.019 685.078,405.066 685.078,406.112 C684.817,406.112 684.555,406.112 684.294,406.112 C684.294,406.897 684.294,407.682 684.294,408.467 C684.032,408.467 683.771,408.467 683.510,408.467 C683.510,409.514 683.510,410.560 683.510,411.607 C683.248,411.607 682.987,411.607 682.725,411.607 C682.202,413.961 681.679,416.317 681.156,418.671 C680.895,418.671 680.634,418.671 680.372,418.671 C680.372,419.194 680.372,419.718 680.372,420.241 C680.111,420.241 679.849,420.241 679.588,420.241 C679.588,421.026 679.588,421.811 679.588,422.596 C679.326,422.596 679.065,422.596 678.803,422.596 C678.803,423.119 678.803,423.642 678.803,424.166 C678.542,424.166 678.280,424.166 678.019,424.166 C678.019,424.950 678.019,425.735 678.019,426.520 C677.758,426.520 677.496,426.520 677.235,426.520 C676.712,428.090 676.189,429.660 675.666,431.230 C675.405,431.230 675.143,431.230 674.882,431.230 C674.882,431.753 674.882,432.276 674.882,432.800 C674.620,432.800 674.359,432.800 674.097,432.800 C674.097,433.323 674.097,433.846 674.097,434.369 C673.836,434.369 673.574,434.369 673.313,434.369 C672.790,435.939 672.267,437.509 671.744,439.079 C671.221,439.341 670.698,439.602 670.175,439.864 C669.914,440.910 669.653,441.957 669.391,443.003 C668.868,443.265 668.345,443.527 667.822,443.788 C667.561,444.835 667.299,445.882 667.038,446.928 C666.515,447.190 665.992,447.451 665.469,447.713 C665.469,448.236 665.469,448.760 665.469,449.283 C664.685,449.806 663.901,450.329 663.116,450.853 C663.116,451.376 663.116,451.899 663.116,452.422 C662.593,452.684 662.070,452.946 661.548,453.207 C661.548,453.731 661.548,454.254 661.548,454.777 C661.025,455.039 660.502,455.301 659.979,455.562 C659.717,456.347 659.456,457.132 659.195,457.917 C658.410,458.440 657.626,458.963 656.841,459.487 C656.841,460.010 656.841,460.533 656.841,461.057 C655.534,462.103 654.227,463.150 652.920,464.196 C652.920,464.719 652.920,465.243 652.920,465.766 C651.613,466.812 650.305,467.859 648.998,468.906 C648.998,469.429 648.998,469.952 648.998,470.475 C646.906,472.307 644.814,474.139 642.723,475.970 C642.723,476.493 642.723,477.017 642.723,477.540 C639.586,480.417 636.448,483.296 633.311,486.174 C627.088,492.400 621.740,498.980 614.486,504.227 C612.133,506.843 609.780,509.460 607.427,512.076 C606.904,512.076 606.381,512.076 605.858,512.076 C603.767,514.430 601.675,516.786 599.584,519.140 C599.061,519.140 598.538,519.140 598.015,519.140 C595.923,521.495 593.831,523.850 591.740,526.204 C591.217,526.204 590.694,526.204 590.171,526.204 C589.910,526.728 589.648,527.251 589.387,527.774 C588.341,528.559 587.295,529.344 586.249,530.129 C583.325,533.053 577.682,540.824 573.700,541.903 C572.680,545.887 566.972,549.393 564.288,552.107 C563.765,552.891 563.242,553.677 562.719,554.461 C562.457,554.461 562.196,554.461 561.934,554.461 C561.934,554.985 561.934,555.508 561.934,556.031 C560.889,556.816 559.843,557.601 558.797,558.386 C558.797,558.909 558.797,559.433 558.797,559.956 C558.013,560.479 557.228,561.002 556.444,561.526 C556.444,562.049 556.444,562.572 556.444,563.095 C555.921,563.357 555.398,563.619 554.875,563.880 C554.875,564.404 554.875,564.927 554.875,565.450 C554.352,565.712 553.829,565.973 553.307,566.235 C553.045,567.282 552.784,568.328 552.522,569.375 C551.999,569.636 551.476,569.898 550.953,570.160 C550.692,571.206 550.431,572.253 550.169,573.299 C549.908,573.299 549.646,573.299 549.385,573.299 C548.862,574.869 548.339,576.439 547.816,578.009 C547.555,578.009 547.293,578.009 547.032,578.009 C547.032,578.794 547.032,579.579 547.032,580.364 C546.770,580.364 546.509,580.364 546.247,580.364 C546.247,580.887 546.247,581.410 546.247,581.933 C545.986,581.933 545.724,581.933 545.463,581.933 C545.202,583.503 544.940,585.073 544.679,586.643 C544.417,586.643 544.156,586.643 543.894,586.643 C543.894,587.166 543.894,587.689 543.894,588.213 C543.633,588.213 543.371,588.213 543.110,588.213 C543.110,589.259 543.110,590.306 543.110,591.352 C542.849,591.352 542.587,591.352 542.326,591.352 C542.326,592.137 542.326,592.922 542.326,593.707 C542.064,593.707 541.803,593.707 541.541,593.707 C541.541,594.754 541.541,595.800 541.541,596.847 C541.280,596.847 541.018,596.847 540.757,596.847 C540.757,597.893 540.757,598.940 540.757,599.986 C540.495,599.986 540.234,599.986 539.973,599.986 C539.973,601.556 539.973,603.126 539.973,604.696 C539.711,604.696 539.450,604.696 539.188,604.696 C539.188,606.527 539.188,608.359 539.188,610.190 C538.927,610.190 538.665,610.190 538.404,610.190 C538.404,612.283 538.404,614.377 538.404,616.470 C538.142,616.470 537.881,616.470 537.619,616.470 C537.619,619.347 537.619,622.226 537.619,625.104 C537.358,625.104 537.097,625.104 536.835,625.104 C536.574,635.045 536.312,644.989 536.051,654.930 C513.307,654.930 490.556,654.930 467.812,654.930 C467.471,635.119 466.336,610.785 470.949,595.277 C470.949,593.707 470.949,592.137 470.949,590.567 C471.211,590.567 471.472,590.567 471.734,590.567 C471.734,589.259 471.734,587.951 471.734,586.643 C471.995,586.643 472.257,586.643 472.518,586.643 C472.518,585.335 472.518,584.026 472.518,582.718 C472.779,582.718 473.041,582.718 473.302,582.718 C473.302,581.672 473.302,580.625 473.302,579.579 C473.564,579.579 473.825,579.579 474.087,579.579 C474.087,578.532 474.087,577.485 474.087,576.439 C474.348,576.439 474.610,576.439 474.871,576.439 C474.871,575.654 474.871,574.869 474.871,574.084 C475.132,574.084 475.394,574.084 475.655,574.084 C475.655,573.299 475.655,572.514 475.655,571.729 C475.917,571.729 476.178,571.729 476.440,571.729 C476.440,570.945 476.440,570.160 476.440,569.375 C476.701,569.375 476.963,569.375 477.224,569.375 C477.224,568.590 477.224,567.805 477.224,567.020 C477.486,567.020 477.747,567.020 478.008,567.020 C478.270,565.450 478.531,563.880 478.793,562.311 C479.054,562.311 479.316,562.311 479.577,562.311 C479.577,561.787 479.577,561.264 479.577,560.741 C479.839,560.741 480.100,560.741 480.362,560.741 C480.362,559.956 480.362,559.171 480.362,558.386 C480.623,558.386 480.884,558.386 481.146,558.386 C481.407,557.339 481.669,556.293 481.930,555.246 C482.192,555.246 482.453,555.246 482.715,555.246 C482.715,554.461 482.715,553.676 482.715,552.892 C482.976,552.892 483.238,552.892 483.499,552.892 C483.760,551.845 484.022,550.798 484.283,549.752 C484.545,549.752 484.806,549.752 485.068,549.752 C485.068,549.229 485.068,548.705 485.068,548.182 C485.591,547.920 486.114,547.659 486.636,547.397 C486.636,546.874 486.636,546.351 486.636,545.827 C486.898,545.827 487.159,545.827 487.421,545.827 C487.421,545.304 487.421,544.781 487.421,544.257 C487.682,544.257 487.944,544.257 488.205,544.257 C488.205,543.734 488.205,543.211 488.205,542.688 C488.466,542.688 488.728,542.688 488.989,542.688 C488.989,542.164 488.989,541.641 488.989,541.118 C489.512,540.856 490.035,540.595 490.558,540.333 C490.820,539.286 491.081,538.240 491.342,537.193 C491.604,537.193 491.865,537.193 492.127,537.193 C492.388,536.408 492.650,535.623 492.911,534.838 C493.434,534.577 493.957,534.315 494.480,534.054 C494.480,533.530 494.480,533.007 494.480,532.484 C494.741,532.484 495.003,532.484 495.264,532.484 C495.526,531.699 495.787,530.914 496.049,530.129 C496.571,529.867 497.094,529.606 497.617,529.344 C497.617,528.821 497.617,528.297 497.617,527.774 C498.402,527.251 499.186,526.728 499.970,526.204 C499.970,525.681 499.970,525.158 499.970,524.635 C500.755,524.111 501.539,523.588 502.323,523.065 C502.323,522.542 502.323,522.018 502.323,521.495 C503.369,520.710 504.415,519.925 505.461,519.140 C505.461,518.617 505.461,518.094 505.461,517.570 C506.768,516.524 508.076,515.477 509.383,514.431 C509.383,513.907 509.383,513.384 509.383,512.861 C514.873,507.629 520.364,502.395 525.854,497.163 C532.963,490.050 539.546,482.737 547.816,476.755 C549.646,474.662 551.477,472.568 553.307,470.475 C553.829,470.475 554.352,470.475 554.875,470.475 C556.705,468.383 558.536,466.289 560.366,464.196 C560.889,464.196 561.412,464.196 561.934,464.196 C562.196,463.673 562.457,463.150 562.719,462.626 C562.980,462.626 563.242,462.626 563.503,462.626 C565.595,460.272 567.687,457.917 569.778,455.562 C570.301,455.562 570.824,455.562 571.347,455.562 C574.484,452.161 577.622,448.759 580.759,445.358 C583.373,443.004 585.988,440.648 588.603,438.294 C588.864,437.509 589.125,436.724 589.387,435.939 C590.955,434.631 592.524,433.323 594.093,432.015 C594.093,431.491 594.093,430.968 594.093,430.445 C595.400,429.398 596.708,428.352 598.015,427.305 C598.015,426.782 598.015,426.259 598.015,425.735 C598.799,425.212 599.584,424.689 600.368,424.166 C600.368,423.642 600.368,423.119 600.368,422.596 C600.891,422.334 601.414,422.072 601.937,421.811 C602.198,421.026 602.460,420.241 602.721,419.456 C602.982,419.456 603.244,419.456 603.505,419.456 C603.505,418.933 603.505,418.409 603.505,417.886 C604.028,417.625 604.551,417.363 605.074,417.101 C605.335,416.055 605.597,415.008 605.858,413.962 C606.381,413.700 606.904,413.438 607.427,413.177 C607.427,412.653 607.427,412.130 607.427,411.607 C607.688,411.607 607.950,411.607 608.211,411.607 C608.211,411.084 608.211,410.560 608.211,410.037 C608.473,410.037 608.734,410.037 608.996,410.037 C608.996,409.252 608.996,408.467 608.996,407.682 C609.257,407.682 609.519,407.682 609.780,407.682 C610.042,406.636 610.303,405.589 610.564,404.543 C610.826,404.543 611.087,404.543 611.349,404.543 C611.349,403.758 611.349,402.973 611.349,402.188 C611.610,402.188 611.872,402.188 612.133,402.188 C612.133,401.403 612.133,400.618 612.133,399.833 C612.395,399.833 612.656,399.833 612.918,399.833 C612.918,399.048 612.918,398.263 612.918,397.478 C613.179,397.478 613.440,397.478 613.702,397.478 C613.702,396.432 613.702,395.385 613.702,394.339 C613.963,394.339 614.225,394.339 614.486,394.339 C614.486,393.292 614.486,392.246 614.486,391.199 C614.748,391.199 615.009,391.199 615.271,391.199 C615.271,389.629 615.271,388.059 615.271,386.490 C615.532,386.490 615.794,386.490 616.055,386.490 C616.055,384.135 616.055,381.780 616.055,379.425 C616.316,379.425 616.578,379.425 616.839,379.425 C616.839,375.501 616.839,371.576 616.839,367.652 C616.578,367.652 616.316,367.652 616.055,367.652 C616.055,365.036 616.055,362.419 616.055,359.803 C615.794,359.803 615.532,359.803 615.271,359.803 C615.009,356.925 614.748,354.046 614.486,351.168 C614.225,351.168 613.963,351.168 613.702,351.168 C613.440,349.337 613.179,347.505 612.918,345.674 C612.656,345.674 612.395,345.674 612.133,345.674 C612.133,344.889 612.133,344.104 612.133,343.319 C611.872,343.319 611.610,343.319 611.349,343.319 C611.349,342.534 611.349,341.749 611.349,340.965 C611.087,340.965 610.826,340.965 610.564,340.965 C610.564,340.180 610.564,339.395 610.564,338.610 C610.303,338.610 610.042,338.610 609.780,338.610 C609.519,337.563 609.257,336.517 608.996,335.470 C608.734,335.470 608.473,335.470 608.211,335.470 C608.211,334.685 608.211,333.900 608.211,333.115 C607.950,333.115 607.688,333.115 607.427,333.115 C607.166,332.069 606.904,331.022 606.643,329.976 C606.381,329.976 606.120,329.976 605.858,329.976 C605.597,328.929 605.335,327.883 605.074,326.836 C604.551,326.574 604.028,326.313 603.505,326.051 C603.244,325.005 602.982,323.958 602.721,322.912 C602.460,322.912 602.198,322.912 601.937,322.912 C601.675,322.127 601.414,321.342 601.152,320.557 C600.629,320.295 600.106,320.033 599.584,319.772 C599.584,319.249 599.584,318.725 599.584,318.202 C598.799,317.679 598.015,317.155 597.230,316.632 C597.230,316.109 597.230,315.586 597.230,315.062 C596.708,314.801 596.185,314.539 595.662,314.277 C595.400,313.493 595.139,312.708 594.877,311.923 C593.309,310.615 591.740,309.306 590.171,307.998 C590.171,307.475 590.171,306.952 590.171,306.428 C588.080,304.597 585.988,302.765 583.896,300.934 C583.374,300.149 582.851,299.364 582.328,298.579 C581.805,298.579 581.282,298.579 580.759,298.579 C579.452,297.010 578.144,295.439 576.837,293.870 C576.314,293.870 575.791,293.870 575.268,293.870 C574.484,292.823 573.700,291.776 572.915,290.730 C572.393,290.730 571.870,290.730 571.347,290.730 C571.085,290.207 570.824,289.683 570.562,289.160 C570.040,289.160 569.517,289.160 568.994,289.160 C568.732,288.637 568.471,288.114 568.209,287.590 C567.686,287.590 567.163,287.590 566.641,287.590 C566.379,287.067 566.118,286.544 565.856,286.021 C564.811,285.759 563.765,285.497 562.719,285.236 C562.457,284.712 562.196,284.189 561.934,283.666 C560.889,283.404 559.843,283.142 558.797,282.881 C558.797,282.619 558.797,282.358 558.797,282.096 C558.274,282.096 557.751,282.096 557.228,282.096 C557.228,281.834 557.228,281.573 557.228,281.311 C555.660,280.788 554.091,280.264 552.522,279.741 C552.522,279.480 552.522,279.218 552.522,278.956 C551.738,278.956 550.953,278.956 550.169,278.956 C550.169,278.695 550.169,278.433 550.169,278.171 C549.646,278.171 549.123,278.171 548.600,278.171 C548.600,277.910 548.600,277.648 548.600,277.386 C547.032,277.125 545.463,276.863 543.894,276.602 C543.894,276.340 543.894,276.078 543.894,275.817 C543.110,275.817 542.326,275.817 541.541,275.817 C541.541,275.555 541.541,275.293 541.541,275.032 C540.757,275.032 539.972,275.032 539.188,275.032 C539.188,274.770 539.188,274.508 539.188,274.247 C538.404,274.247 537.619,274.247 536.835,274.247 C536.835,273.985 536.835,273.724 536.835,273.462 C535.789,273.462 534.743,273.462 533.698,273.462 C533.698,273.200 533.698,272.939 533.698,272.677 C531.083,272.415 528.468,272.154 525.854,271.892 C525.854,271.630 525.854,271.369 525.854,271.107 C523.763,271.107 521.671,271.107 519.579,271.107 C519.579,270.846 519.579,270.584 519.579,270.322 C514.874,270.322 510.167,270.322 505.461,270.322 C490.961,270.322 479.545,271.830 469.381,275.817 C468.596,275.817 467.812,275.817 467.027,275.817 C461.538,278.171 456.046,280.526 450.556,282.881 C450.295,283.404 450.033,283.927 449.772,284.451 C448.726,284.712 447.680,284.974 446.634,285.236 C446.373,285.759 446.111,286.282 445.850,286.805 C445.327,286.805 444.804,286.805 444.281,286.805 C444.281,287.067 444.281,287.329 444.281,287.590 C443.497,287.852 442.712,288.114 441.928,288.375 C441.667,288.899 441.405,289.422 441.144,289.945 C440.621,289.945 440.098,289.945 439.575,289.945 C438.791,290.992 438.006,292.038 437.222,293.085 C436.699,293.085 436.176,293.085 435.653,293.085 C434.346,294.654 433.039,296.225 431.732,297.794 C431.209,297.794 430.686,297.794 430.163,297.794 C429.379,298.841 428.594,299.887 427.810,300.934 C427.287,301.196 426.764,301.457 426.241,301.719 C426.241,302.242 426.241,302.765 426.241,303.289 C424.411,304.858 422.581,306.428 420.751,307.998 C420.751,308.521 420.751,309.045 420.751,309.568 C419.966,310.091 419.182,310.615 418.397,311.138 C418.397,311.661 418.397,312.184 418.397,312.708 C417.875,312.969 417.352,313.231 416.829,313.493 C416.829,314.016 416.829,314.539 416.829,315.062 C416.044,315.586 415.260,316.109 414.476,316.632 C414.476,317.155 414.476,317.679 414.476,318.202 C414.214,318.202 413.953,318.202 413.691,318.202 C413.691,318.725 413.691,319.249 413.691,319.772 C413.168,320.033 412.645,320.295 412.123,320.557 C411.600,322.126 411.077,323.697 410.554,325.266 C410.031,325.528 409.508,325.790 408.985,326.051 C408.724,327.098 408.462,328.144 408.201,329.191 C407.939,329.191 407.678,329.191 407.416,329.191 C407.155,330.237 406.894,331.284 406.632,332.331 C406.371,332.331 406.109,332.331 405.848,332.331 C405.848,333.115 405.848,333.900 405.848,334.685 C405.586,334.685 405.325,334.685 405.063,334.685 C404.802,335.732 404.540,336.778 404.279,337.825 C404.018,337.825 403.756,337.825 403.495,337.825 C403.495,338.610 403.495,339.395 403.495,340.180 C403.233,340.180 402.972,340.180 402.710,340.180 C402.710,340.703 402.710,341.226 402.710,341.749 C402.449,341.749 402.187,341.749 401.926,341.749 C401.926,342.534 401.926,343.319 401.926,344.104 C401.665,344.104 401.403,344.104 401.142,344.104 C401.142,344.889 401.142,345.674 401.142,346.459 C400.880,346.459 400.619,346.459 400.357,346.459 C400.357,347.244 400.357,348.029 400.357,348.814 C400.096,348.814 399.834,348.814 399.573,348.814 C399.573,349.599 399.573,350.384 399.573,351.168 C399.312,351.168 399.050,351.168 398.789,351.168 C398.789,351.953 398.789,352.738 398.789,353.523 C398.527,353.523 398.266,353.523 398.004,353.523 C398.004,354.308 398.004,355.093 398.004,355.878 C397.743,355.878 397.481,355.878 397.220,355.878 C397.220,356.663 397.220,357.448 397.220,358.233 C396.958,358.233 396.697,358.233 396.436,358.233 C396.174,360.326 395.913,362.419 395.651,364.512 C395.390,364.512 395.128,364.512 394.867,364.512 C394.605,366.605 394.344,368.698 394.082,370.791 C393.821,370.791 393.560,370.791 393.298,370.791 C393.298,372.099 393.298,373.408 393.298,374.716 C392.269,378.038 391.174,382.270 390.945,386.490 C366.632,383.612 342.313,380.733 318.000,377.856 C318.292,373.865 319.351,368.660 320.353,365.297 C320.614,362.419 320.876,359.541 321.137,356.663 C321.399,356.663 321.660,356.663 321.922,356.663 C322.183,354.047 322.445,351.430 322.706,348.814 C322.968,348.814 323.229,348.814 323.490,348.814 C323.752,346.721 324.013,344.627 324.275,342.534 C324.536,342.534 324.798,342.534 325.059,342.534 C325.321,340.703 325.582,338.871 325.844,337.040 C326.105,337.040 326.366,337.040 326.628,337.040 C326.628,336.255 326.628,335.470 326.628,334.685 C326.889,334.685 327.151,334.685 327.412,334.685 C327.412,333.639 327.412,332.592 327.412,331.546 C327.674,331.546 327.935,331.546 328.197,331.546 C328.197,330.761 328.197,329.976 328.197,329.191 C328.458,329.191 328.720,329.191 328.981,329.191 C328.981,328.406 328.981,327.621 328.981,326.836 C329.242,326.836 329.504,326.836 329.765,326.836 C329.765,326.051 329.765,325.266 329.765,324.481 C330.027,324.481 330.288,324.481 330.550,324.481 C330.550,323.958 330.550,323.435 330.550,322.912 C330.811,322.912 331.073,322.912 331.334,322.912 C331.595,321.342 331.857,319.772 332.118,318.202 C332.380,318.202 332.641,318.202 332.903,318.202 C332.903,317.679 332.903,317.155 332.903,316.632 C333.164,316.632 333.426,316.632 333.687,316.632 C333.687,315.847 333.687,315.062 333.687,314.277 C333.949,314.277 334.210,314.277 334.471,314.277 C334.733,313.231 334.994,312.184 335.256,311.138 C335.517,311.138 335.779,311.138 336.040,311.138 C336.040,310.615 336.040,310.091 336.040,309.568 C336.302,309.568 336.563,309.568 336.825,309.568 C336.825,308.783 336.825,307.998 336.825,307.213 C337.086,307.213 337.347,307.213 337.609,307.213 C338.132,305.644 338.655,304.073 339.178,302.504 C339.439,302.504 339.701,302.504 339.962,302.504 C339.962,301.981 339.962,301.457 339.962,300.934 C340.223,300.934 340.485,300.934 340.746,300.934 C341.008,299.887 341.269,298.841 341.531,297.794 C342.054,297.533 342.577,297.271 343.099,297.009 C343.622,295.440 344.145,293.870 344.668,292.300 C345.191,292.038 345.714,291.777 346.237,291.515 C346.498,290.468 346.760,289.422 347.021,288.375 C347.544,288.114 348.067,287.852 348.590,287.590 C348.590,287.067 348.590,286.544 348.590,286.021 C348.851,286.021 349.113,286.021 349.374,286.021 C349.636,285.236 349.897,284.451 350.159,283.666 C350.681,283.404 351.204,283.142 351.727,282.881 C351.727,282.358 351.727,281.834 351.727,281.311 C352.512,280.788 353.296,280.264 354.080,279.741 C354.080,279.218 354.080,278.695 354.080,278.171 C354.603,277.910 355.126,277.648 355.649,277.386 C355.910,276.602 356.172,275.817 356.433,275.032 C357.479,274.247 358.525,273.462 359.571,272.677 C359.571,272.154 359.571,271.630 359.571,271.107 C361.139,269.799 362.708,268.491 364.277,267.183 C364.277,266.659 364.277,266.136 364.277,265.613 C365.584,264.566 366.892,263.520 368.199,262.473 C370.029,260.380 371.859,258.287 373.689,256.194 C374.473,255.932 375.258,255.670 376.042,255.409 C377.088,254.101 378.134,252.792 379.180,251.484 C379.703,251.484 380.226,251.484 380.748,251.484 C381.533,250.438 382.317,249.391 383.101,248.345 C383.624,248.345 384.147,248.345 384.670,248.345 C385.193,247.560 385.716,246.775 386.239,245.990 C386.762,245.990 387.285,245.990 387.808,245.990 C388.330,245.205 388.853,244.420 389.376,243.635 C389.899,243.635 390.422,243.635 390.945,243.635 C391.206,243.112 391.468,242.589 391.729,242.065 C392.514,241.804 393.298,241.542 394.082,241.280 C394.082,241.019 394.082,240.757 394.082,240.495 C394.605,240.495 395.128,240.495 395.651,240.495 C395.913,239.972 396.174,239.449 396.436,238.926 C397.481,238.664 398.527,238.402 399.573,238.141 C399.834,237.618 400.096,237.094 400.357,236.571 C401.926,236.048 403.495,235.524 405.063,235.001 C405.325,234.478 405.586,233.954 405.848,233.431 C406.893,233.170 407.939,232.908 408.985,232.646 C408.985,232.385 408.985,232.123 408.985,231.861 C410.554,231.338 412.123,230.815 413.691,230.292 C413.691,230.030 413.691,229.768 413.691,229.507 C414.476,229.507 415.260,229.507 416.044,229.507 C416.044,229.245 416.044,228.983 416.044,228.722 C416.567,228.722 417.090,228.722 417.613,228.722 C417.613,228.460 417.613,228.198 417.613,227.937 C418.659,227.675 419.705,227.414 420.751,227.152 C420.751,226.890 420.751,226.629 420.751,226.367 C428.593,223.751 436.438,221.134 444.281,218.518 C446.634,218.256 448.988,217.995 451.340,217.733 C466.026,213.103 483.759,212.241 503.108,212.239 C510.558,212.238 520.539,211.306 526.638,213.023 C529.514,213.023 532.391,213.023 535.266,213.023 C535.266,213.285 535.266,213.547 535.266,213.808 C537.358,213.808 539.450,213.808 541.541,213.808 C541.541,214.070 541.541,214.332 541.541,214.593 C543.110,214.593 544.679,214.593 546.247,214.593 C546.247,214.855 546.247,215.117 546.247,215.378 C547.816,215.378 549.385,215.378 550.953,215.378 C550.953,215.640 550.953,215.902 550.953,216.163 C552.522,216.163 554.091,216.163 555.660,216.163 C555.660,216.425 555.660,216.686 555.660,216.948 C556.705,216.948 557.751,216.948 558.797,216.948 C558.797,217.210 558.797,217.471 558.797,217.733 C560.104,217.733 561.412,217.733 562.719,217.733 C562.719,217.995 562.719,218.256 562.719,218.518 C563.765,218.518 564.811,218.518 565.856,218.518 C565.856,218.779 565.856,219.041 565.856,219.303 C566.902,219.303 567.948,219.303 568.994,219.303 C568.994,219.564 568.994,219.826 568.994,220.088 C570.824,220.349 572.654,220.611 574.484,220.873 C574.484,221.134 574.484,221.396 574.484,221.658 C575.268,221.658 576.053,221.658 576.837,221.658 C576.837,221.919 576.837,222.181 576.837,222.442 C577.621,222.442 578.406,222.442 579.190,222.442 C579.190,222.704 579.190,222.966 579.190,223.227 C579.975,223.227 580.759,223.227 581.543,223.227 C581.543,223.489 581.543,223.751 581.543,224.012 C582.328,224.012 583.112,224.012 583.896,224.012 C583.896,224.274 583.896,224.536 583.896,224.797 C584.419,224.797 584.942,224.797 585.465,224.797 C585.465,225.059 585.465,225.321 585.465,225.582 C587.034,225.844 588.603,226.105 590.171,226.367 C590.171,226.629 590.171,226.890 590.171,227.152 C591.217,227.414 592.263,227.675 593.309,227.937 C593.309,228.198 593.309,228.460 593.309,228.722 C594.093,228.722 594.877,228.722 595.662,228.722 C595.662,228.983 595.662,229.245 595.662,229.507 C597.230,230.030 598.799,230.553 600.368,231.077 C600.368,231.338 600.368,231.600 600.368,231.861 C600.891,231.861 601.414,231.861 601.937,231.861 C601.937,232.123 601.937,232.385 601.937,232.646 C602.459,232.646 602.982,232.646 603.505,232.646 C603.505,232.908 603.505,233.170 603.505,233.431 C605.074,233.954 606.643,234.478 608.211,235.001 C608.473,235.524 608.734,236.048 608.996,236.571 C610.564,237.094 612.133,237.618 613.702,238.141 C613.702,238.402 613.702,238.664 613.702,238.926 C614.486,239.187 615.271,239.449 616.055,239.711 C616.316,240.234 616.578,240.757 616.839,241.280 C617.885,241.542 618.931,241.804 619.977,242.065 C620.238,242.589 620.500,243.112 620.761,243.635 C621.284,243.635 621.807,243.635 622.330,243.635 C622.853,244.420 623.376,245.205 623.899,245.990 C624.421,245.990 624.944,245.990 625.467,245.990 C625.990,246.775 626.513,247.560 627.036,248.345 C627.559,248.345 628.082,248.345 628.605,248.345 C629.128,249.129 629.651,249.915 630.173,250.699 C630.696,250.699 631.219,250.699 631.742,250.699 C632.788,252.007 633.834,253.316 634.879,254.624 C635.402,254.624 635.925,254.624 636.448,254.624 C639.324,257.763 642.200,260.904 645.076,264.043 C647.952,266.659 650.828,269.276 653.704,271.892 C653.704,272.415 653.704,272.939 653.704,273.462 C655.011,274.508 656.319,275.555 657.626,276.602 C657.626,277.125 657.626,277.648 657.626,278.171 C658.410,278.695 659.195,279.218 659.979,279.741 C659.979,280.264 659.979,280.788 659.979,281.311 C660.763,281.834 661.548,282.358 662.332,282.881 C662.332,283.404 662.332,283.927 662.332,284.451 C663.116,284.974 663.901,285.497 664.685,286.021 C664.685,286.544 664.685,287.067 664.685,287.590 C665.208,287.852 665.731,288.114 666.254,288.375 C666.515,289.422 666.777,290.468 667.038,291.515 C667.561,291.777 668.084,292.038 668.607,292.300 C668.868,293.085 669.130,293.870 669.391,294.655 C669.653,294.655 669.914,294.655 670.175,294.655 C670.175,295.178 670.175,295.701 670.175,296.224 C670.437,296.224 670.698,296.224 670.960,296.224 C670.960,296.748 670.960,297.271 670.960,297.794 C671.221,297.794 671.483,297.794 671.744,297.794 C671.744,298.317 671.744,298.841 671.744,299.364 C672.006,299.364 672.267,299.364 672.529,299.364 C672.529,299.887 672.529,300.411 672.529,300.934 C672.790,300.934 673.051,300.934 673.313,300.934 C673.313,301.457 673.313,301.981 673.313,302.504 C673.574,302.504 673.836,302.504 674.097,302.504 C674.097,303.027 674.097,303.550 674.097,304.074 C674.359,304.074 674.620,304.074 674.882,304.074 C674.882,304.597 674.882,305.120 674.882,305.643 C675.143,305.643 675.405,305.643 675.666,305.643 C675.666,306.167 675.666,306.690 675.666,307.213 C675.927,307.213 676.189,307.213 676.450,307.213 C676.973,308.783 677.496,310.353 678.019,311.923 C678.280,311.923 678.542,311.923 678.803,311.923 C678.803,312.708 678.803,313.493 678.803,314.277 C679.065,314.277 679.326,314.277 679.588,314.277 C679.588,314.801 679.588,315.324 679.588,315.847 C679.849,315.847 680.111,315.847 680.372,315.847 C682.463,323.172 684.556,330.500 686.647,337.825 C687.170,343.319 687.693,348.814 688.216,354.308 C688.477,354.308 688.739,354.308 689.000,354.308 C689.000,358.494 689.000,362.681 689.000,366.867 C689.001,378.891 688.668,389.968 685.863,399.048 C685.863,400.356 685.863,401.665 685.863,402.973 ZM543.894,797.000 C517.229,797.000 490.555,797.000 463.890,797.000 C463.890,770.316 463.890,743.623 463.890,716.939 C490.555,716.939 517.229,716.939 543.894,716.939 C543.894,743.623 543.894,770.316 543.894,797.000 Z" id="path-1" class="cls-2" fill-rule="evenodd"/>
</svg>
