<svg xmlns="http://www.w3.org/2000/svg" xmlns:xlink="http://www.w3.org/1999/xlink" preserveAspectRatio="xMidYMid" width="914" height="961" viewBox="0 0 914 961">
  <defs>
    <style>

      .cls-2 {
        fill: #ffffff;
      }
    </style>
  </defs>
  <path d="M913.370,911.775 C913.370,911.775 860.315,960.450 860.315,960.450 C860.315,960.450 502.861,570.832 502.861,570.832 C450.522,609.275 385.919,632.000 316.000,632.000 C141.478,632.000 0.000,490.522 0.000,316.000 C0.000,141.478 141.478,0.000 316.000,0.000 C490.522,0.000 632.000,141.478 632.000,316.000 C632.000,394.663 603.248,466.606 555.691,521.913 C555.691,521.913 913.370,911.775 913.370,911.775 ZM316.550,47.263 C167.827,47.263 47.263,167.827 47.263,316.550 C47.263,465.273 167.827,585.837 316.550,585.837 C383.021,585.837 443.856,561.738 490.827,521.820 C490.827,521.820 506.109,507.799 506.109,507.799 C555.338,459.003 585.837,391.341 585.837,316.550 C585.837,167.827 465.273,47.263 316.550,47.263 Z" id="path-1" class="cls-2" fill-rule="evenodd"/>
</svg>
