<svg xmlns="http://www.w3.org/2000/svg" xmlns:xlink="http://www.w3.org/1999/xlink" preserveAspectRatio="xMidYMid" width="1004" height="1004" viewBox="0 0 1004 1004">
  <defs>
    <style>

      .cls-2 {
        fill: #ffffff;
      }
    </style>
  </defs>
  <path d="M501.875,1003.750 C224.697,1003.750 -0.000,779.053 -0.000,501.875 C-0.000,224.697 224.697,-0.000 501.875,-0.000 C779.053,-0.000 1003.750,224.697 1003.750,501.875 C1003.750,779.053 779.053,1003.750 501.875,1003.750 ZM772.000,333.867 C764.101,336.969 756.200,340.072 748.301,343.174 C747.173,343.174 746.044,343.174 744.915,343.174 C744.915,343.456 744.915,343.738 744.915,344.021 C744.069,344.021 743.222,344.021 742.376,344.021 C742.376,344.303 742.376,344.585 742.376,344.867 C741.248,344.867 740.119,344.867 738.991,344.867 C738.991,345.149 738.991,345.431 738.991,345.713 C737.862,345.713 736.733,345.713 735.605,345.713 C735.605,345.995 735.605,346.277 735.605,346.559 C734.477,346.559 733.348,346.559 732.219,346.559 C732.219,346.841 732.219,347.123 732.219,347.405 C730.809,347.405 729.398,347.405 727.987,347.405 C727.987,347.687 727.987,347.969 727.987,348.251 C726.577,348.251 725.166,348.251 723.755,348.251 C723.755,348.533 723.755,348.815 723.755,349.098 C722.345,349.098 720.934,349.098 719.524,349.098 C719.524,349.380 719.524,349.662 719.524,349.944 C717.549,349.944 715.573,349.944 713.599,349.944 C713.599,350.226 713.599,350.508 713.599,350.790 C712.470,350.790 711.342,350.790 710.213,350.790 C710.213,350.508 710.213,350.226 710.213,349.944 C712.752,348.534 715.292,347.123 717.831,345.713 C718.395,344.867 718.959,344.020 719.524,343.174 C720.088,343.174 720.652,343.174 721.216,343.174 C722.345,341.764 723.473,340.354 724.602,338.944 C725.166,338.944 725.730,338.944 726.295,338.944 C727.141,337.815 727.988,336.687 728.834,335.559 C731.091,333.585 733.348,331.610 735.605,329.636 C735.605,329.072 735.605,328.507 735.605,327.943 C737.016,326.815 738.426,325.687 739.837,324.559 C739.837,323.995 739.837,323.430 739.837,322.866 C740.683,322.302 741.530,321.738 742.376,321.174 C742.376,320.610 742.376,320.046 742.376,319.482 C742.940,319.200 743.505,318.918 744.069,318.636 C744.351,317.789 744.633,316.943 744.915,316.097 C745.197,316.097 745.480,316.097 745.762,316.097 C745.762,315.533 745.762,314.969 745.762,314.405 C746.326,314.123 746.890,313.841 747.455,313.559 C748.019,311.866 748.583,310.174 749.147,308.482 C749.712,308.200 750.276,307.917 750.840,307.635 C751.686,305.097 752.533,302.558 753.379,300.020 C753.661,300.020 753.944,300.020 754.226,300.020 C754.226,299.456 754.226,298.892 754.226,298.328 C754.508,298.328 754.790,298.328 755.072,298.328 C755.072,297.481 755.072,296.635 755.072,295.789 C755.354,295.789 755.636,295.789 755.918,295.789 C756.201,294.379 756.483,292.968 756.765,291.558 C757.047,291.558 757.329,291.558 757.611,291.558 C757.611,290.994 757.611,290.430 757.611,289.866 C750.841,293.532 744.068,297.200 737.298,300.866 C736.451,300.866 735.605,300.866 734.759,300.866 C734.759,301.148 734.759,301.430 734.759,301.712 C733.630,301.994 732.501,302.276 731.373,302.558 C731.373,302.840 731.373,303.123 731.373,303.405 C730.527,303.405 729.680,303.405 728.834,303.405 C728.834,303.687 728.834,303.969 728.834,304.251 C728.270,304.251 727.705,304.251 727.141,304.251 C727.141,304.533 727.141,304.815 727.141,305.097 C726.295,305.097 725.448,305.097 724.602,305.097 C724.602,305.379 724.602,305.661 724.602,305.943 C724.038,305.943 723.473,305.943 722.909,305.943 C722.909,306.225 722.909,306.507 722.909,306.789 C722.063,306.789 721.216,306.789 720.370,306.789 C720.370,307.071 720.370,307.353 720.370,307.635 C719.524,307.635 718.677,307.635 717.831,307.635 C717.831,307.917 717.831,308.200 717.831,308.482 C716.984,308.482 716.138,308.482 715.292,308.482 C715.292,308.764 715.292,309.046 715.292,309.328 C707.111,311.584 698.927,313.841 690.746,316.097 C689.336,316.097 687.925,316.097 686.514,316.097 C685.104,314.405 683.693,312.712 682.282,311.020 C681.154,310.174 680.025,309.328 678.897,308.482 C678.897,308.200 678.897,307.917 678.897,307.635 C678.332,307.635 677.768,307.635 677.204,307.635 C676.357,306.507 675.511,305.379 674.665,304.251 C674.100,304.251 673.536,304.251 672.972,304.251 C672.408,303.405 671.843,302.558 671.279,301.712 C670.715,301.712 670.150,301.712 669.586,301.712 C669.304,301.148 669.022,300.584 668.740,300.020 C667.894,299.738 667.047,299.456 666.201,299.174 C666.201,298.892 666.201,298.610 666.201,298.328 C665.072,298.046 663.943,297.763 662.815,297.481 C662.533,296.917 662.251,296.353 661.969,295.789 C660.276,295.225 658.583,294.661 656.890,294.097 C656.890,293.815 656.890,293.533 656.890,293.251 C656.326,293.251 655.762,293.251 655.197,293.251 C655.197,292.969 655.197,292.686 655.197,292.404 C653.505,291.840 651.812,291.276 650.119,290.712 C650.119,290.430 650.119,290.148 650.119,289.866 C642.784,287.610 635.448,285.353 628.113,283.097 C624.163,282.815 620.213,282.532 616.263,282.250 C604.942,279.040 585.813,282.805 577.329,285.635 C573.662,286.481 569.993,287.327 566.326,288.174 C566.326,288.456 566.326,288.738 566.326,289.020 C565.762,289.020 565.197,289.020 564.633,289.020 C564.633,289.302 564.633,289.584 564.633,289.866 C563.787,289.866 562.940,289.866 562.094,289.866 C562.094,290.148 562.094,290.430 562.094,290.712 C560.401,291.276 558.708,291.840 557.016,292.404 C557.016,292.686 557.016,292.969 557.016,293.251 C556.451,293.251 555.887,293.251 555.323,293.251 C555.323,293.533 555.323,293.815 555.323,294.097 C554.194,294.379 553.066,294.661 551.937,294.943 C551.655,295.507 551.373,296.071 551.091,296.635 C549.962,296.917 548.834,297.199 547.705,297.481 C547.423,298.045 547.141,298.610 546.859,299.174 C546.295,299.174 545.730,299.174 545.166,299.174 C544.884,299.738 544.602,300.302 544.320,300.866 C543.756,300.866 543.191,300.866 542.627,300.866 C542.345,301.430 542.063,301.994 541.781,302.558 C541.216,302.558 540.652,302.558 540.088,302.558 C539.524,303.404 538.959,304.251 538.395,305.097 C537.831,305.097 537.266,305.097 536.702,305.097 C535.574,306.507 534.445,307.918 533.317,309.328 C532.752,309.328 532.188,309.328 531.624,309.328 C531.060,310.174 530.495,311.020 529.931,311.866 C527.674,313.840 525.417,315.815 523.160,317.789 C523.160,318.353 523.160,318.918 523.160,319.482 C521.749,320.610 520.338,321.738 518.928,322.866 C518.928,323.430 518.928,323.995 518.928,324.559 C518.082,325.123 517.235,325.687 516.389,326.251 C516.389,326.815 516.389,327.379 516.389,327.943 C515.542,328.507 514.696,329.072 513.850,329.636 C513.850,330.200 513.850,330.764 513.850,331.328 C513.285,331.610 512.721,331.892 512.157,332.174 C511.875,333.302 511.592,334.431 511.310,335.559 C510.746,335.841 510.182,336.123 509.618,336.405 C506.797,342.610 503.975,348.816 501.154,355.021 C500.872,356.713 500.589,358.406 500.307,360.098 C496.781,369.070 495.229,379.487 495.229,392.252 C495.229,396.200 495.229,400.150 495.229,404.098 C495.511,404.098 495.793,404.098 496.075,404.098 C496.075,406.355 496.075,408.611 496.075,410.868 C496.599,412.683 497.514,415.157 497.768,417.637 C485.452,417.448 471.392,416.401 461.373,413.406 C455.731,412.560 450.087,411.714 444.445,410.868 C444.445,410.586 444.445,410.304 444.445,410.021 C441.906,409.739 439.367,409.457 436.828,409.175 C436.828,408.893 436.828,408.611 436.828,408.329 C435.699,408.329 434.570,408.329 433.442,408.329 C433.442,408.047 433.442,407.765 433.442,407.483 C431.467,407.201 429.492,406.919 427.517,406.637 C427.517,406.355 427.517,406.073 427.517,405.791 C425.543,405.509 423.567,405.227 421.592,404.944 C421.592,404.662 421.592,404.380 421.592,404.098 C420.746,404.098 419.900,404.098 419.053,404.098 C419.053,403.816 419.053,403.534 419.053,403.252 C418.207,403.252 417.360,403.252 416.514,403.252 C416.514,402.970 416.514,402.688 416.514,402.406 C415.668,402.406 414.821,402.406 413.975,402.406 C413.975,402.124 413.975,401.842 413.975,401.560 C413.129,401.560 412.282,401.560 411.436,401.560 C411.436,401.278 411.436,400.996 411.436,400.714 C408.897,400.150 406.357,399.585 403.818,399.021 C403.818,398.739 403.818,398.457 403.818,398.175 C403.254,398.175 402.690,398.175 402.125,398.175 C402.125,397.893 402.125,397.611 402.125,397.329 C401.279,397.329 400.433,397.329 399.586,397.329 C399.586,397.047 399.586,396.765 399.586,396.483 C398.176,396.201 396.765,395.919 395.354,395.637 C395.354,395.355 395.354,395.073 395.354,394.791 C394.790,394.791 394.226,394.791 393.661,394.791 C393.661,394.508 393.661,394.226 393.661,393.944 C392.815,393.944 391.969,393.944 391.122,393.944 C391.122,393.662 391.122,393.380 391.122,393.098 C389.994,392.816 388.865,392.534 387.737,392.252 C387.737,391.970 387.737,391.688 387.737,391.406 C386.890,391.406 386.044,391.406 385.197,391.406 C385.197,391.124 385.197,390.842 385.197,390.560 C384.633,390.560 384.069,390.560 383.505,390.560 C383.505,390.278 383.505,389.996 383.505,389.714 C382.376,389.431 381.248,389.149 380.119,388.867 C380.119,388.585 380.119,388.303 380.119,388.021 C379.555,388.021 378.991,388.021 378.426,388.021 C378.426,387.739 378.426,387.457 378.426,387.175 C377.862,387.175 377.298,387.175 376.734,387.175 C376.734,386.893 376.734,386.611 376.734,386.329 C376.169,386.329 375.605,386.329 375.041,386.329 C375.041,386.047 375.041,385.765 375.041,385.483 C374.477,385.483 373.912,385.483 373.348,385.483 C373.348,385.201 373.348,384.919 373.348,384.637 C372.220,384.354 371.091,384.072 369.962,383.790 C369.962,383.508 369.962,383.226 369.962,382.944 C369.398,382.944 368.834,382.944 368.270,382.944 C368.270,382.662 368.270,382.380 368.270,382.098 C367.705,382.098 367.141,382.098 366.577,382.098 C366.577,381.816 366.577,381.534 366.577,381.252 C366.013,381.252 365.448,381.252 364.884,381.252 C364.884,380.970 364.884,380.688 364.884,380.406 C364.320,380.406 363.755,380.406 363.191,380.406 C363.191,380.124 363.191,379.842 363.191,379.560 C362.627,379.560 362.063,379.560 361.498,379.560 C361.498,379.277 361.498,378.995 361.498,378.713 C360.934,378.713 360.370,378.713 359.806,378.713 C359.524,378.149 359.241,377.585 358.959,377.021 C357.267,376.457 355.573,375.893 353.881,375.329 C353.599,374.765 353.317,374.200 353.034,373.636 C351.906,373.354 350.777,373.072 349.649,372.790 C349.367,372.226 349.085,371.662 348.803,371.098 C347.956,370.816 347.110,370.534 346.263,370.252 C346.263,369.970 346.263,369.688 346.263,369.406 C345.135,369.123 344.006,368.841 342.878,368.559 C342.596,367.995 342.313,367.431 342.031,366.867 C341.467,366.867 340.903,366.867 340.339,366.867 C340.056,366.303 339.774,365.739 339.492,365.175 C338.928,365.175 338.364,365.175 337.799,365.175 C337.517,364.611 337.235,364.046 336.953,363.482 C336.389,363.482 335.824,363.482 335.260,363.482 C334.978,362.918 334.696,362.354 334.414,361.790 C333.850,361.790 333.285,361.790 332.721,361.790 C332.157,360.944 331.592,360.098 331.028,359.252 C330.464,359.252 329.900,359.252 329.335,359.252 C329.053,358.687 328.771,358.123 328.489,357.559 C327.925,357.559 327.360,357.559 326.796,357.559 C326.232,356.713 325.668,355.867 325.103,355.021 C324.539,355.021 323.975,355.021 323.411,355.021 C322.564,353.893 321.718,352.764 320.871,351.636 C320.025,351.354 319.179,351.072 318.332,350.790 C318.050,350.226 317.768,349.662 317.486,349.098 C316.922,349.098 316.357,349.098 315.793,349.098 C305.355,339.509 294.914,329.917 284.476,320.328 C284.476,319.764 284.476,319.200 284.476,318.636 C281.655,316.097 278.834,313.558 276.013,311.020 C276.013,310.456 276.013,309.892 276.013,309.328 C274.320,307.918 272.627,306.507 270.934,305.097 C269.761,303.522 271.318,303.869 269.241,302.558 C269.241,302.276 269.241,301.994 269.241,301.712 C266.358,304.211 265.228,309.924 263.317,313.559 C257.841,323.972 254.013,338.519 254.006,354.175 C254.006,359.251 254.006,364.329 254.006,369.406 C254.288,369.406 254.571,369.406 254.853,369.406 C254.853,371.380 254.853,373.354 254.853,375.329 C255.135,375.329 255.417,375.329 255.699,375.329 C255.699,377.021 255.699,378.714 255.699,380.406 C255.981,380.406 256.263,380.406 256.545,380.406 C256.545,381.534 256.545,382.662 256.545,383.790 C256.828,383.790 257.110,383.790 257.392,383.790 C257.392,384.918 257.392,386.047 257.392,387.175 C257.674,387.175 257.956,387.175 258.238,387.175 C258.238,388.303 258.238,389.432 258.238,390.560 C258.520,390.560 258.803,390.560 259.085,390.560 C259.367,392.252 259.649,393.945 259.931,395.637 C260.213,395.637 260.495,395.637 260.777,395.637 C260.777,396.201 260.777,396.765 260.777,397.329 C261.060,397.329 261.342,397.329 261.624,397.329 C261.624,398.175 261.624,399.021 261.624,399.867 C261.906,399.867 262.188,399.867 262.470,399.867 C262.752,400.996 263.035,402.124 263.317,403.252 C263.599,403.252 263.881,403.252 264.163,403.252 C264.163,404.098 264.163,404.945 264.163,405.791 C264.445,405.791 264.727,405.791 265.009,405.791 C265.009,406.355 265.009,406.919 265.009,407.483 C265.292,407.483 265.574,407.483 265.856,407.483 C265.856,408.047 265.856,408.611 265.856,409.175 C266.420,409.457 266.984,409.739 267.549,410.021 C268.113,411.714 268.677,413.406 269.241,415.098 C269.806,415.381 270.370,415.663 270.934,415.945 C270.934,416.509 270.934,417.073 270.934,417.637 C271.216,417.637 271.498,417.637 271.781,417.637 C272.063,418.483 272.345,419.329 272.627,420.175 C273.191,420.458 273.756,420.740 274.320,421.022 C274.320,421.586 274.320,422.150 274.320,422.714 C274.884,422.996 275.448,423.278 276.013,423.560 C276.295,424.406 276.577,425.253 276.859,426.099 C277.987,426.945 279.116,427.791 280.245,428.637 C280.245,429.201 280.245,429.765 280.245,430.329 C282.501,432.304 284.759,434.278 287.016,436.253 C291.668,440.904 295.885,446.009 302.251,448.945 C302.251,449.227 302.251,449.509 302.251,449.791 C287.143,449.605 275.478,445.947 265.009,441.330 C264.163,441.330 263.317,441.330 262.470,441.330 C262.470,441.048 262.470,440.766 262.470,440.483 C259.471,439.019 256.088,438.573 254.006,436.253 C253.724,436.253 253.442,436.253 253.160,436.253 C253.099,457.851 257.641,473.186 265.009,487.023 C265.009,487.587 265.009,488.151 265.009,488.715 C265.292,488.715 265.574,488.715 265.856,488.715 C265.856,489.279 265.856,489.843 265.856,490.407 C266.138,490.407 266.420,490.407 266.702,490.407 C266.702,490.971 266.702,491.536 266.702,492.100 C266.984,492.100 267.266,492.100 267.549,492.100 C267.549,492.664 267.549,493.228 267.549,493.792 C268.113,494.074 268.677,494.356 269.241,494.638 C269.241,495.202 269.241,495.766 269.241,496.330 C269.806,496.612 270.370,496.895 270.934,497.177 C270.934,497.741 270.934,498.305 270.934,498.869 C271.216,498.869 271.498,498.869 271.781,498.869 C272.063,499.715 272.345,500.561 272.627,501.407 C273.191,501.689 273.756,501.972 274.320,502.254 C274.320,502.818 274.320,503.382 274.320,503.946 C274.884,504.228 275.448,504.510 276.013,504.792 C276.295,505.638 276.577,506.485 276.859,507.331 C278.552,508.741 280.245,510.151 281.937,511.561 C281.937,512.125 281.937,512.690 281.937,513.254 C282.502,513.536 283.066,513.818 283.630,514.100 C285.323,516.074 287.016,518.049 288.708,520.023 C289.273,520.023 289.837,520.023 290.401,520.023 C291.530,521.433 292.658,522.844 293.787,524.254 C294.351,524.254 294.915,524.254 295.480,524.254 C296.326,525.382 297.172,526.510 298.019,527.639 C298.583,527.639 299.147,527.639 299.712,527.639 C299.994,528.203 300.276,528.767 300.558,529.331 C301.404,529.613 302.251,529.895 303.097,530.177 C303.097,530.459 303.097,530.741 303.097,531.023 C303.661,531.023 304.226,531.023 304.790,531.023 C305.072,531.587 305.354,532.152 305.636,532.716 C307.329,533.280 309.022,533.844 310.715,534.408 C319.130,539.691 329.569,544.182 341.185,546.254 C339.121,548.194 336.660,546.998 333.567,547.947 C333.567,548.229 333.567,548.511 333.567,548.793 C331.875,548.793 330.182,548.793 328.489,548.793 C317.011,552.153 303.952,549.106 292.094,548.793 C293.100,554.059 295.879,558.308 298.019,562.331 C298.301,563.460 298.583,564.588 298.865,565.716 C299.147,565.716 299.429,565.716 299.712,565.716 C300.276,567.408 300.840,569.101 301.404,570.793 C301.969,571.075 302.533,571.357 303.097,571.639 C303.379,572.767 303.661,573.896 303.944,575.024 C304.508,575.306 305.072,575.588 305.636,575.870 C305.636,576.434 305.636,576.998 305.636,577.562 C306.483,578.126 307.329,578.691 308.176,579.255 C308.176,579.819 308.176,580.383 308.176,580.947 C308.740,581.229 309.304,581.511 309.868,581.793 C310.150,582.639 310.433,583.486 310.715,584.332 C312.125,585.460 313.536,586.588 314.947,587.716 C314.947,588.280 314.947,588.845 314.947,589.409 C315.793,589.973 316.640,590.537 317.486,591.101 C319.179,593.075 320.872,595.050 322.564,597.024 C323.128,597.024 323.693,597.024 324.257,597.024 C325.385,598.434 326.514,599.845 327.643,601.255 C328.207,601.255 328.771,601.255 329.335,601.255 C330.182,602.383 331.028,603.512 331.875,604.640 C332.439,604.640 333.003,604.640 333.567,604.640 C333.850,605.204 334.132,605.768 334.414,606.332 C335.260,606.614 336.107,606.896 336.953,607.178 C336.953,607.460 336.953,607.742 336.953,608.024 C337.517,608.024 338.082,608.024 338.646,608.024 C338.928,608.588 339.210,609.153 339.492,609.717 C341.185,610.281 342.878,610.845 344.571,611.409 C357.938,619.809 374.270,624.143 394.508,625.794 C394.508,626.076 394.508,626.358 394.508,626.640 C393.484,627.214 393.344,627.973 392.815,628.332 C392.251,628.332 391.686,628.332 391.122,628.332 C390.558,629.178 389.994,630.025 389.429,630.871 C388.865,630.871 388.301,630.871 387.737,630.871 C387.455,631.435 387.172,631.999 386.890,632.563 C386.326,632.563 385.762,632.563 385.197,632.563 C384.915,633.127 384.633,633.692 384.351,634.256 C383.505,634.538 382.658,634.820 381.812,635.102 C381.812,635.384 381.812,635.666 381.812,635.948 C381.248,635.948 380.683,635.948 380.119,635.948 C379.837,636.512 379.555,637.076 379.273,637.640 C378.709,637.640 378.144,637.640 377.580,637.640 C377.298,638.204 377.016,638.768 376.734,639.333 C376.169,639.333 375.605,639.333 375.041,639.333 C374.759,639.897 374.476,640.461 374.194,641.025 C372.502,641.589 370.809,642.153 369.116,642.717 C368.834,643.281 368.552,643.845 368.270,644.410 C367.705,644.410 367.141,644.410 366.577,644.410 C366.577,644.692 366.577,644.974 366.577,645.256 C366.013,645.256 365.448,645.256 364.884,645.256 C364.884,645.538 364.884,645.820 364.884,646.102 C364.320,646.102 363.755,646.102 363.191,646.102 C363.191,646.384 363.191,646.666 363.191,646.948 C362.627,646.948 362.063,646.948 361.498,646.948 C361.216,647.512 360.934,648.076 360.652,648.640 C358.113,649.486 355.573,650.333 353.034,651.179 C353.034,651.461 353.034,651.743 353.034,652.025 C352.470,652.025 351.906,652.025 351.342,652.025 C351.342,652.307 351.342,652.589 351.342,652.871 C349.649,653.435 347.956,653.999 346.263,654.564 C346.263,654.846 346.263,655.128 346.263,655.410 C345.417,655.410 344.570,655.410 343.724,655.410 C343.724,655.692 343.724,655.974 343.724,656.256 C343.160,656.256 342.596,656.256 342.031,656.256 C342.031,656.538 342.031,656.820 342.031,657.102 C341.185,657.102 340.338,657.102 339.492,657.102 C339.492,657.384 339.492,657.666 339.492,657.948 C338.928,657.948 338.364,657.948 337.799,657.948 C337.799,658.230 337.799,658.512 337.799,658.794 C336.107,659.076 334.414,659.359 332.721,659.641 C332.721,659.923 332.721,660.205 332.721,660.487 C331.875,660.487 331.028,660.487 330.182,660.487 C330.182,660.769 330.182,661.051 330.182,661.333 C329.336,661.333 328.489,661.333 327.643,661.333 C327.643,661.615 327.643,661.897 327.643,662.179 C326.796,662.179 325.950,662.179 325.103,662.179 C325.103,662.461 325.103,662.743 325.103,663.025 C324.257,663.025 323.411,663.025 322.564,663.025 C322.564,663.307 322.564,663.589 322.564,663.871 C321.718,663.871 320.871,663.871 320.025,663.871 C320.025,664.153 320.025,664.436 320.025,664.718 C317.768,665.000 315.511,665.282 313.254,665.564 C305.356,668.243 293.423,671.144 283.630,671.487 C272.828,671.866 257.451,675.320 246.389,672.333 C242.877,671.385 237.646,673.541 235.386,671.487 C234.257,671.487 233.128,671.487 232.000,671.487 C233.340,673.553 232.681,672.034 234.539,673.179 C234.539,673.461 234.539,673.743 234.539,674.025 C235.103,674.025 235.668,674.025 236.232,674.025 C236.514,674.589 236.796,675.154 237.078,675.718 C237.643,675.718 238.207,675.718 238.771,675.718 C239.053,676.282 239.335,676.846 239.618,677.410 C240.182,677.410 240.746,677.410 241.310,677.410 C241.310,677.692 241.310,677.974 241.310,678.256 C241.875,678.256 242.439,678.256 243.003,678.256 C243.003,678.538 243.003,678.820 243.003,679.102 C243.567,679.102 244.132,679.102 244.696,679.102 C244.978,679.666 245.260,680.231 245.542,680.795 C246.107,680.795 246.671,680.795 247.235,680.795 C247.235,681.077 247.235,681.359 247.235,681.641 C247.799,681.641 248.364,681.641 248.928,681.641 C248.928,681.923 248.928,682.205 248.928,682.487 C249.492,682.487 250.056,682.487 250.621,682.487 C250.621,682.769 250.621,683.051 250.621,683.333 C251.185,683.333 251.749,683.333 252.313,683.333 C252.596,683.897 252.878,684.461 253.160,685.026 C254.852,685.590 256.546,686.154 258.238,686.718 C258.238,687.000 258.238,687.282 258.238,687.564 C258.802,687.564 259.367,687.564 259.931,687.564 C259.931,687.846 259.931,688.128 259.931,688.410 C260.495,688.410 261.060,688.410 261.624,688.410 C261.624,688.692 261.624,688.974 261.624,689.256 C263.316,689.820 265.010,690.385 266.702,690.949 C266.702,691.231 266.702,691.513 266.702,691.795 C267.549,691.795 268.395,691.795 269.241,691.795 C269.241,692.077 269.241,692.359 269.241,692.641 C269.806,692.641 270.370,692.641 270.934,692.641 C270.934,692.923 270.934,693.205 270.934,693.487 C272.627,694.051 274.320,694.615 276.013,695.180 C276.013,695.462 276.013,695.744 276.013,696.026 C276.859,696.026 277.705,696.026 278.552,696.026 C278.552,696.308 278.552,696.590 278.552,696.872 C279.116,696.872 279.680,696.872 280.245,696.872 C280.245,697.154 280.245,697.436 280.245,697.718 C281.655,698.000 283.066,698.282 284.476,698.564 C284.476,698.846 284.476,699.128 284.476,699.410 C285.323,699.410 286.169,699.410 287.016,699.410 C287.016,699.692 287.016,699.974 287.016,700.257 C287.580,700.257 288.144,700.257 288.708,700.257 C288.708,700.539 288.708,700.821 288.708,701.103 C290.401,701.385 292.094,701.667 293.787,701.949 C293.787,702.231 293.787,702.513 293.787,702.795 C294.351,702.795 294.915,702.795 295.480,702.795 C295.480,703.077 295.480,703.359 295.480,703.641 C307.046,707.026 318.616,710.411 330.182,713.795 C341.748,715.769 353.318,717.744 364.884,719.718 C367.705,719.718 370.527,719.718 373.348,719.718 C373.348,720.000 373.348,720.282 373.348,720.565 C377.297,720.565 381.248,720.565 385.197,720.565 C391.933,722.476 412.303,722.426 419.053,720.565 C423.285,720.565 427.518,720.565 431.749,720.565 C438.284,718.704 447.355,719.041 453.755,717.180 C455.448,717.180 457.141,717.180 458.834,717.180 C466.487,714.863 476.053,713.739 483.379,711.257 C484.508,711.257 485.636,711.257 486.765,711.257 C498.049,707.590 509.337,703.923 520.621,700.257 C520.621,699.974 520.621,699.692 520.621,699.410 C521.185,699.410 521.749,699.410 522.313,699.410 C522.313,699.128 522.313,698.846 522.313,698.564 C523.160,698.564 524.006,698.564 524.853,698.564 C524.853,698.282 524.853,698.000 524.853,697.718 C525.981,697.436 527.110,697.154 528.238,696.872 C528.238,696.590 528.238,696.308 528.238,696.026 C529.085,696.026 529.931,696.026 530.777,696.026 C530.777,695.744 530.777,695.462 530.777,695.180 C531.906,694.897 533.035,694.615 534.163,694.333 C534.163,694.051 534.163,693.769 534.163,693.487 C535.009,693.487 535.856,693.487 536.702,693.487 C536.702,693.205 536.702,692.923 536.702,692.641 C538.395,692.077 540.088,691.513 541.781,690.949 C541.781,690.667 541.781,690.385 541.781,690.103 C542.345,690.103 542.909,690.103 543.473,690.103 C543.473,689.821 543.473,689.538 543.473,689.256 C544.038,689.256 544.602,689.256 545.166,689.256 C545.166,688.974 545.166,688.692 545.166,688.410 C545.730,688.410 546.295,688.410 546.859,688.410 C546.859,688.128 546.859,687.846 546.859,687.564 C547.423,687.564 547.988,687.564 548.552,687.564 C548.552,687.282 548.552,687.000 548.552,686.718 C549.116,686.718 549.680,686.718 550.245,686.718 C550.245,686.436 550.245,686.154 550.245,685.872 C550.809,685.872 551.373,685.872 551.937,685.872 C551.937,685.590 551.937,685.308 551.937,685.026 C552.502,685.026 553.066,685.026 553.630,685.026 C553.912,684.461 554.194,683.897 554.476,683.333 C555.041,683.333 555.605,683.333 556.169,683.333 C556.169,683.051 556.169,682.769 556.169,682.487 C556.733,682.487 557.298,682.487 557.862,682.487 C557.862,682.205 557.862,681.923 557.862,681.641 C558.426,681.641 558.991,681.641 559.555,681.641 C559.555,681.359 559.555,681.077 559.555,680.795 C560.119,680.795 560.683,680.795 561.248,680.795 C561.530,680.231 561.812,679.666 562.094,679.102 C563.222,678.820 564.351,678.538 565.480,678.256 C565.762,677.692 566.044,677.128 566.326,676.564 C566.890,676.564 567.455,676.564 568.019,676.564 C568.019,676.282 568.019,676.000 568.019,675.718 C568.583,675.718 569.147,675.718 569.712,675.718 C569.994,675.154 570.276,674.589 570.558,674.025 C571.122,674.025 571.687,674.025 572.251,674.025 C572.533,673.461 572.815,672.897 573.097,672.333 C573.661,672.333 574.226,672.333 574.790,672.333 C575.072,671.769 575.354,671.205 575.636,670.641 C576.201,670.641 576.765,670.641 577.329,670.641 C577.611,670.077 577.893,669.512 578.176,668.948 C578.740,668.948 579.304,668.948 579.868,668.948 C580.150,668.384 580.433,667.820 580.715,667.256 C581.279,667.256 581.843,667.256 582.408,667.256 C582.690,666.692 582.972,666.128 583.254,665.564 C583.818,665.564 584.383,665.564 584.947,665.564 C585.229,665.000 585.511,664.435 585.793,663.871 C586.639,663.589 587.486,663.307 588.332,663.025 C588.896,662.179 589.461,661.333 590.025,660.487 C590.589,660.487 591.154,660.487 591.718,660.487 C592.000,659.923 592.282,659.358 592.564,658.794 C593.411,658.512 594.257,658.230 595.103,657.948 C595.950,656.820 596.796,655.692 597.643,654.564 C598.207,654.564 598.771,654.564 599.335,654.564 C600.464,653.153 601.593,651.743 602.721,650.333 C603.285,650.333 603.850,650.333 604.414,650.333 C605.824,648.641 607.235,646.948 608.646,645.256 C609.210,645.256 609.774,645.256 610.339,645.256 C614.570,640.743 618.803,636.229 623.034,631.717 C627.266,627.769 631.499,623.819 635.730,619.871 C635.730,619.307 635.730,618.742 635.730,618.178 C637.423,616.768 639.116,615.358 640.809,613.948 C640.809,613.384 640.809,612.819 640.809,612.255 C642.219,611.127 643.630,609.999 645.041,608.871 C645.041,608.307 645.041,607.742 645.041,607.178 C646.169,606.332 647.298,605.486 648.426,604.640 C648.426,604.076 648.426,603.511 648.426,602.947 C649.273,602.383 650.119,601.819 650.966,601.255 C650.966,600.691 650.966,600.127 650.966,599.563 C651.812,598.999 652.658,598.434 653.505,597.870 C653.505,597.306 653.505,596.742 653.505,596.178 C654.351,595.614 655.198,595.050 656.044,594.486 C656.044,593.922 656.044,593.357 656.044,592.793 C656.608,592.511 657.172,592.229 657.737,591.947 C657.737,591.383 657.737,590.819 657.737,590.255 C658.583,589.691 659.430,589.127 660.276,588.563 C660.276,587.999 660.276,587.434 660.276,586.870 C660.840,586.588 661.404,586.306 661.969,586.024 C661.969,585.460 661.969,584.896 661.969,584.332 C662.533,584.050 663.097,583.768 663.661,583.486 C663.944,582.639 664.226,581.793 664.508,580.947 C664.790,580.947 665.072,580.947 665.354,580.947 C665.636,579.819 665.919,578.691 666.201,577.562 C666.765,577.280 667.329,576.998 667.893,576.716 C668.176,575.870 668.458,575.024 668.740,574.178 C669.022,574.178 669.304,574.178 669.586,574.178 C669.868,573.050 670.150,571.921 670.433,570.793 C670.997,570.511 671.561,570.229 672.125,569.947 C672.690,568.255 673.254,566.562 673.818,564.870 C674.382,564.588 674.947,564.306 675.511,564.024 C675.511,563.460 675.511,562.895 675.511,562.331 C675.793,562.331 676.075,562.331 676.357,562.331 C676.357,561.767 676.357,561.203 676.357,560.639 C676.639,560.639 676.922,560.639 677.204,560.639 C677.204,560.075 677.204,559.511 677.204,558.947 C677.486,558.947 677.768,558.947 678.050,558.947 C678.050,558.383 678.050,557.818 678.050,557.254 C678.614,556.972 679.179,556.690 679.743,556.408 C680.307,554.716 680.872,553.023 681.436,551.331 C681.718,551.331 682.000,551.331 682.282,551.331 C682.282,550.767 682.282,550.203 682.282,549.639 C682.564,549.639 682.846,549.639 683.129,549.639 C683.129,549.075 683.129,548.511 683.129,547.947 C683.411,547.947 683.693,547.947 683.975,547.947 C684.539,546.254 685.104,544.562 685.668,542.870 C685.950,542.870 686.232,542.870 686.514,542.870 C686.514,542.024 686.514,541.177 686.514,540.331 C686.796,540.331 687.078,540.331 687.361,540.331 C687.925,538.639 688.489,536.946 689.053,535.254 C689.335,535.254 689.618,535.254 689.900,535.254 C689.900,534.690 689.900,534.126 689.900,533.562 C690.182,533.562 690.464,533.562 690.746,533.562 C690.746,532.716 690.746,531.869 690.746,531.023 C691.028,531.023 691.310,531.023 691.592,531.023 C691.875,529.895 692.157,528.767 692.439,527.639 C692.721,527.639 693.003,527.639 693.285,527.639 C693.285,526.793 693.285,525.946 693.285,525.100 C693.567,525.100 693.850,525.100 694.132,525.100 C694.132,524.536 694.132,523.972 694.132,523.408 C694.414,523.408 694.696,523.408 694.978,523.408 C694.978,522.562 694.978,521.715 694.978,520.869 C695.260,520.869 695.542,520.869 695.824,520.869 C695.824,520.305 695.824,519.741 695.824,519.177 C696.107,519.177 696.389,519.177 696.671,519.177 C697.235,516.639 697.799,514.100 698.364,511.561 C698.646,511.561 698.928,511.561 699.210,511.561 C699.210,510.997 699.210,510.433 699.210,509.869 C699.492,509.869 699.774,509.869 700.056,509.869 C703.442,498.024 706.828,486.175 710.213,474.330 C710.213,472.920 710.213,471.509 710.213,470.099 C710.495,470.099 710.777,470.099 711.060,470.099 C711.060,468.971 711.060,467.843 711.060,466.715 C711.342,466.715 711.624,466.715 711.906,466.715 C711.906,465.022 711.906,463.330 711.906,461.638 C712.188,461.638 712.470,461.638 712.752,461.638 C712.752,460.228 712.752,458.817 712.752,457.407 C713.034,457.407 713.317,457.407 713.599,457.407 C713.599,455.715 713.599,454.022 713.599,452.330 C713.881,452.330 714.163,452.330 714.445,452.330 C714.445,450.356 714.445,448.381 714.445,446.407 C714.727,446.407 715.009,446.407 715.292,446.407 C715.292,444.150 715.292,441.894 715.292,439.637 C715.574,439.637 715.856,439.637 716.138,439.637 C716.138,436.817 716.138,433.996 716.138,431.176 C716.420,431.176 716.702,431.176 716.984,431.176 C716.984,426.945 716.984,422.714 716.984,418.483 C718.431,413.445 718.890,396.320 716.984,391.406 C718.503,390.539 720.698,389.232 722.063,388.021 C722.627,387.175 723.191,386.329 723.755,385.483 C724.320,385.483 724.884,385.483 725.448,385.483 C726.295,384.355 727.141,383.226 727.987,382.098 C728.552,382.098 729.116,382.098 729.680,382.098 C730.809,380.688 731.937,379.277 733.066,377.867 C733.630,377.867 734.194,377.867 734.759,377.867 C737.862,374.483 740.966,371.098 744.069,367.713 C747.736,364.329 751.405,360.944 755.072,357.559 C755.072,356.995 755.072,356.431 755.072,355.867 C756.483,354.739 757.894,353.610 759.304,352.482 C759.304,351.918 759.304,351.354 759.304,350.790 C760.432,349.944 761.561,349.097 762.690,348.251 C762.690,347.687 762.690,347.123 762.690,346.559 C763.818,345.713 764.947,344.867 766.075,344.021 C766.075,343.456 766.075,342.892 766.075,342.328 C766.639,342.046 767.204,341.764 767.768,341.482 C769.312,339.206 769.721,337.051 772.000,335.559 C772.000,334.995 772.000,334.431 772.000,333.867 Z" id="path-1" class="cls-2" fill-rule="evenodd"/>
</svg>
